<svg width="619" height="320" viewBox="0 0 619 320" fill="none" xmlns="http://www.w3.org/2000/svg">
<path opacity="0.4" d="M593.863 88.0461C596.973 99.6522 592.711 112.821 581.953 126.799C571.207 140.763 554.093 155.374 531.872 169.767C487.438 198.547 422.779 226.326 348.429 246.248C274.079 266.17 204.193 274.443 151.322 271.735C124.881 270.381 102.755 266.284 86.4666 259.564C70.1614 252.838 59.8856 243.564 56.7758 231.958C53.6659 220.352 57.9282 207.183 68.6857 193.205C79.4317 179.242 96.5454 164.63 118.767 150.237C163.2 121.457 227.859 93.6781 302.21 73.7559C376.56 53.8338 446.446 45.5616 499.316 48.2689C525.757 49.6229 547.884 53.7202 564.172 60.4398C580.477 67.1665 590.753 76.44 593.863 88.0461Z" stroke="#B0D5FC" stroke-width="2"/>
<path opacity="0.4" d="M561.422 87.9709C564.532 99.577 560.269 112.746 549.512 126.724C538.766 140.687 521.652 155.299 499.43 169.692C454.997 198.472 390.338 226.251 315.988 246.173C241.637 266.095 171.751 274.367 118.881 271.66C92.4401 270.306 70.3133 266.209 54.0252 259.489C37.72 252.763 27.4442 243.489 24.3343 231.883C21.2245 220.277 25.4868 207.108 36.2443 193.13C46.9903 179.167 64.104 164.555 86.3256 150.162C130.759 121.382 195.418 93.6029 269.768 73.6807C344.119 53.7586 414.005 45.4864 466.875 48.1937C493.316 49.5477 515.443 53.6451 531.731 60.3646C548.036 67.0913 558.312 76.3648 561.422 87.9709Z" stroke="#B0D5FC" stroke-width="2"/>
<circle cx="538" cy="52.501" r="4" fill="#02B2E8"/>
<circle cx="114" cy="132.501" r="4" fill="#02B2E8"/>
</svg>
