<svg width="25" height="25" viewBox="0 0 25 25" fill="none" xmlns="http://www.w3.org/2000/svg">
<mask id="mask0_168_37595" style="mask-type:alpha" maskUnits="userSpaceOnUse" x="0" y="0" width="25" height="25">
<rect x="0.143555" y="0.5" width="24" height="24" fill="#D9D9D9"/>
</mask>
<g mask="url(#mask0_168_37595)">
<path d="M3.89375 20.2502C3.67708 20.0335 3.56875 19.7835 3.56875 19.5002C3.56875 19.2169 3.67708 18.9669 3.89375 18.7502L9.94375 12.7002C10.0438 12.6002 10.1521 12.5294 10.2688 12.4877C10.3854 12.446 10.5104 12.4252 10.6438 12.4252C10.7771 12.4252 10.9021 12.446 11.0188 12.4877C11.1354 12.5294 11.2437 12.6002 11.3438 12.7002L14.6438 16.0002L21.0438 8.8002C21.2271 8.58353 21.4646 8.4752 21.7563 8.4752C22.0479 8.4752 22.2937 8.5752 22.4937 8.7752C22.6771 8.95853 22.7729 9.17936 22.7812 9.4377C22.7896 9.69603 22.7021 9.9252 22.5188 10.1252L15.3438 18.2002C15.2437 18.3169 15.1313 18.4044 15.0063 18.4627C14.8813 18.521 14.7521 18.5502 14.6188 18.5502C14.4854 18.5502 14.3562 18.5252 14.2312 18.4752C14.1062 18.4252 13.9938 18.3502 13.8938 18.2502L10.6438 15.0002L5.39375 20.2502C5.17708 20.4669 4.92708 20.5752 4.64375 20.5752C4.36042 20.5752 4.11042 20.4669 3.89375 20.2502ZM4.14375 13.8002C4.06042 13.8002 3.97708 13.7794 3.89375 13.7377C3.81042 13.696 3.74375 13.6252 3.69375 13.5252L3.19375 12.4502L2.11875 11.9502C2.01875 11.9002 1.94792 11.8335 1.90625 11.7502C1.86458 11.6669 1.84375 11.5835 1.84375 11.5002C1.84375 11.4169 1.86458 11.3335 1.90625 11.2502C1.94792 11.1669 2.01875 11.1002 2.11875 11.0502L3.19375 10.5502L3.69375 9.4752C3.74375 9.3752 3.81042 9.30436 3.89375 9.2627C3.97708 9.22103 4.06042 9.2002 4.14375 9.2002C4.22708 9.2002 4.31042 9.22103 4.39375 9.2627C4.47708 9.30436 4.54375 9.3752 4.59375 9.4752L5.09375 10.5502L6.16875 11.0502C6.35208 11.1335 6.44375 11.2835 6.44375 11.5002C6.44375 11.7169 6.35208 11.8669 6.16875 11.9502L5.09375 12.4502L4.59375 13.5252C4.54375 13.6252 4.47708 13.696 4.39375 13.7377C4.31042 13.7794 4.22708 13.8002 4.14375 13.8002ZM15.1438 11.8002C15.0604 11.8002 14.9771 11.7794 14.8938 11.7377C14.8104 11.696 14.7438 11.6252 14.6938 11.5252L14.1938 10.4502L13.1188 9.9502C13.0188 9.9002 12.9479 9.83353 12.9062 9.7502C12.8646 9.66686 12.8438 9.58353 12.8438 9.5002C12.8438 9.41686 12.8646 9.33353 12.9062 9.2502C12.9479 9.16686 13.0188 9.1002 13.1188 9.0502L14.1938 8.5502L14.6938 7.4752C14.7438 7.3752 14.8104 7.30436 14.8938 7.2627C14.9771 7.22103 15.0604 7.2002 15.1438 7.2002C15.2271 7.2002 15.3104 7.22103 15.3938 7.2627C15.4771 7.30436 15.5437 7.3752 15.5938 7.4752L16.0938 8.5502L17.1687 9.0502C17.2688 9.1002 17.3396 9.16686 17.3813 9.2502C17.4229 9.33353 17.4438 9.41686 17.4438 9.5002C17.4438 9.58353 17.4229 9.66686 17.3813 9.7502C17.3396 9.83353 17.2688 9.9002 17.1687 9.9502L16.0938 10.4502L15.5938 11.5252C15.5437 11.6252 15.4771 11.696 15.3938 11.7377C15.3104 11.7794 15.2271 11.8002 15.1438 11.8002ZM8.64375 8.8002C8.56042 8.8002 8.47708 8.7752 8.39375 8.7252C8.31042 8.6752 8.24375 8.6002 8.19375 8.5002L7.54375 7.1002L6.14375 6.4502C6.04375 6.4002 5.96875 6.33353 5.91875 6.2502C5.86875 6.16686 5.84375 6.08353 5.84375 6.0002C5.84375 5.91686 5.86875 5.83353 5.91875 5.7502C5.96875 5.66686 6.04375 5.6002 6.14375 5.5502L7.54375 4.9002L8.19375 3.5002C8.24375 3.4002 8.31042 3.3252 8.39375 3.2752C8.47708 3.2252 8.56042 3.2002 8.64375 3.2002C8.72708 3.2002 8.81042 3.2252 8.89375 3.2752C8.97708 3.3252 9.04375 3.4002 9.09375 3.5002L9.74375 4.9002L11.1438 5.5502C11.2438 5.6002 11.3188 5.66686 11.3688 5.7502C11.4188 5.83353 11.4438 5.91686 11.4438 6.0002C11.4438 6.08353 11.4188 6.16686 11.3688 6.2502C11.3188 6.33353 11.2438 6.4002 11.1438 6.4502L9.74375 7.1002L9.09375 8.5002C9.04375 8.6002 8.97708 8.6752 8.89375 8.7252C8.81042 8.7752 8.72708 8.8002 8.64375 8.8002Z" fill="#0E5399"/>
</g>
</svg>
