<svg width="25" height="25" viewBox="0 0 25 25" fill="none" xmlns="http://www.w3.org/2000/svg">
<mask id="mask0_168_37591" style="mask-type:alpha" maskUnits="userSpaceOnUse" x="0" y="0" width="25" height="25">
<rect x="0.572266" y="0.5" width="24" height="24" fill="#D9D9D9"/>
</mask>
<g mask="url(#mask0_168_37591)">
<path d="M12.5723 22.5C12.1389 22.5 11.7473 22.3958 11.3973 22.1875C11.0473 21.9792 10.7723 21.7 10.5723 21.35C10.0223 21.35 9.55143 21.1542 9.15977 20.7625C8.7681 20.3708 8.57227 19.9 8.57227 19.35V15.8C7.58893 15.15 6.80143 14.2917 6.20977 13.225C5.6181 12.1583 5.32227 11 5.32227 9.75C5.32227 7.73333 6.02643 6.02083 7.43477 4.6125C8.8431 3.20417 10.5556 2.5 12.5723 2.5C14.5889 2.5 16.3014 3.20417 17.7098 4.6125C19.1181 6.02083 19.8223 7.73333 19.8223 9.75C19.8223 11.0333 19.5264 12.2 18.9348 13.25C18.3431 14.3 17.5556 15.15 16.5723 15.8V19.35C16.5723 19.9 16.3764 20.3708 15.9848 20.7625C15.5931 21.1542 15.1223 21.35 14.5723 21.35C14.3723 21.7 14.0973 21.9792 13.7473 22.1875C13.3973 22.3958 13.0056 22.5 12.5723 22.5ZM10.5723 19.35H14.5723V18.45H10.5723V19.35ZM10.5723 17.45H14.5723V16.5H10.5723V17.45ZM10.3723 14.5H11.8223V11.8L10.1223 10.1C9.98893 9.96667 9.92227 9.8 9.92227 9.6C9.92227 9.4 9.99727 9.225 10.1473 9.075C10.2973 8.925 10.4723 8.85 10.6723 8.85C10.8723 8.85 11.0473 8.925 11.1973 9.075L12.5723 10.45L13.9723 9.05C14.1056 8.91667 14.2723 8.85 14.4723 8.85C14.6723 8.85 14.8473 8.925 14.9973 9.075C15.1473 9.225 15.2223 9.4 15.2223 9.6C15.2223 9.8 15.1473 9.975 14.9973 10.125L13.3223 11.8V14.5H14.7723C15.6723 14.0667 16.4056 13.4292 16.9723 12.5875C17.5389 11.7458 17.8223 10.8 17.8223 9.75C17.8223 8.28333 17.3139 7.04167 16.2973 6.025C15.2806 5.00833 14.0389 4.5 12.5723 4.5C11.1056 4.5 9.86393 5.00833 8.84727 6.025C7.8306 7.04167 7.32227 8.28333 7.32227 9.75C7.32227 10.8 7.6056 11.7458 8.17227 12.5875C8.73893 13.4292 9.47227 14.0667 10.3723 14.5Z" fill="#0E5399"/>
</g>
</svg>
