<svg width="25" height="25" viewBox="0 0 25 25" fill="none" xmlns="http://www.w3.org/2000/svg">
<mask id="mask0_168_37599" style="mask-type:alpha" maskUnits="userSpaceOnUse" x="0" y="0" width="25" height="25">
<rect x="0.714844" y="0.5" width="24" height="24" fill="#D9D9D9"/>
</mask>
<g mask="url(#mask0_168_37599)">
<path d="M7.71484 18.5C7.43151 18.5 7.19401 18.4042 7.00234 18.2125C6.81068 18.0208 6.71484 17.7833 6.71484 17.5V15.5H19.7148V6.5H21.7148C21.9982 6.5 22.2357 6.59583 22.4273 6.7875C22.619 6.97917 22.7148 7.21667 22.7148 7.5V20.075C22.7148 20.525 22.5107 20.8375 22.1023 21.0125C21.694 21.1875 21.3315 21.1167 21.0148 20.8L18.7148 18.5H7.71484ZM6.71484 13.5L4.41484 15.8C4.09818 16.1167 3.73568 16.1875 3.32734 16.0125C2.91901 15.8375 2.71484 15.525 2.71484 15.075V3.5C2.71484 3.21667 2.81068 2.97917 3.00234 2.7875C3.19401 2.59583 3.43151 2.5 3.71484 2.5H16.7148C16.9982 2.5 17.2357 2.59583 17.4273 2.7875C17.619 2.97917 17.7148 3.21667 17.7148 3.5V12.5C17.7148 12.7833 17.619 13.0208 17.4273 13.2125C17.2357 13.4042 16.9982 13.5 16.7148 13.5H6.71484ZM15.7148 11.5V4.5H4.71484V11.5H15.7148Z" fill="#0E5399"/>
</g>
</svg>
