<svg width="38" height="39" viewBox="0 0 38 39" fill="none" xmlns="http://www.w3.org/2000/svg">
<mask id="mask0_168_37442" style="mask-type:alpha" maskUnits="userSpaceOnUse" x="0" y="0" width="38" height="39">
<rect y="0.5" width="38" height="38" fill="#D9D9D9"/>
</mask>
<g mask="url(#mask0_168_37442)">
<path d="M34.8331 27.4168C34.3845 27.4168 34.0084 27.2651 33.705 26.9616C33.4015 26.6581 33.2497 26.2821 33.2497 25.8335V16.4918L20.5435 23.4189C20.306 23.5508 20.0619 23.6498 19.8112 23.7158C19.5605 23.7817 19.29 23.8147 18.9997 23.8147C18.7095 23.8147 18.439 23.7817 18.1883 23.7158C17.9376 23.6498 17.6935 23.5508 17.456 23.4189L4.11641 16.1355C3.85252 16.0036 3.648 15.8123 3.50286 15.5616C3.35773 15.3109 3.28516 15.0404 3.28516 14.7501C3.28516 14.4599 3.35773 14.1894 3.50286 13.9387C3.648 13.688 3.85252 13.4967 4.11641 13.3647L17.4956 6.08138C17.7331 5.94944 17.9772 5.85048 18.2279 5.78451C18.4786 5.71853 18.7359 5.68555 18.9997 5.68555C19.2636 5.68555 19.5209 5.71853 19.7716 5.78451C20.0223 5.85048 20.2664 5.94944 20.5039 6.08138L35.5852 14.3147C35.849 14.4467 36.0536 14.638 36.1987 14.8887C36.3438 15.1394 36.4164 15.4099 36.4164 15.7001V25.8335C36.4164 26.2821 36.2647 26.6581 35.9612 26.9616C35.6577 27.2651 35.2817 27.4168 34.8331 27.4168ZM18.9997 33.3147C18.7359 33.3147 18.4786 33.2817 18.2279 33.2158C17.9772 33.1498 17.7331 33.0508 17.4956 32.9189L9.57891 28.6439C9.05113 28.3536 8.6421 27.9644 8.35182 27.4762C8.06155 26.988 7.91641 26.4404 7.91641 25.8335V19.8168L16.9018 24.6855C17.2449 24.8703 17.5879 25.0352 17.931 25.1803C18.274 25.3255 18.6303 25.398 18.9997 25.398C19.3692 25.398 19.732 25.3189 20.0883 25.1605C20.4445 25.0022 20.7942 24.8307 21.1372 24.646L30.0831 19.8168V25.8335C30.0831 26.4404 29.9379 26.988 29.6477 27.4762C29.3574 27.9644 28.9484 28.3536 28.4206 28.6439L20.5039 32.9189C20.2664 33.0508 20.0223 33.1498 19.7716 33.2158C19.5209 33.2817 19.2636 33.3147 18.9997 33.3147Z" fill="#054A91"/>
</g>
</svg>
