<svg width="25" height="25" viewBox="0 0 25 25" fill="none" xmlns="http://www.w3.org/2000/svg">
<path d="M22.5001 12.1495H16.7001C15.1701 12.1495 14.1201 10.9895 14.1201 9.56952V6.34949C14.1201 4.92949 15.1701 3.76953 16.7001 3.76953H19.9201C21.3401 3.76953 22.5001 4.92949 22.5001 6.34949V12.1495Z" stroke="white" stroke-width="1.5" stroke-linecap="round" stroke-linejoin="round"/>
<path d="M22.4997 12.1494C22.4997 18.1994 21.3697 19.1994 17.9697 21.2194" stroke="white" stroke-width="1.5" stroke-linecap="round" stroke-linejoin="round"/>
<path d="M10.8702 12.1495H5.07023C3.54023 12.1495 2.49023 10.9895 2.49023 9.56952V6.34949C2.49023 4.92949 3.54023 3.76953 5.07023 3.76953H8.30023C9.72023 3.76953 10.8802 4.92949 10.8802 6.34949V12.1495" stroke="white" stroke-width="1.5" stroke-linecap="round" stroke-linejoin="round"/>
<path d="M10.8698 12.1494C10.8698 18.1994 9.73984 19.1994 6.33984 21.2194" stroke="white" stroke-width="1.5" stroke-linecap="round" stroke-linejoin="round"/>
</svg>
