<svg width="32" height="32" viewBox="0 0 32 32" fill="none" xmlns="http://www.w3.org/2000/svg">
<path d="M24.8398 9.53352C24.8932 10.3469 24.8265 11.2669 24.6665 12.2935L23.6932 18.5469C22.8665 23.7602 20.4532 25.5202 15.2398 24.7069L8.98649 23.7202C7.18649 23.4402 5.79983 22.9602 4.78649 22.2402C2.85316 20.8935 2.29316 18.6802 2.82649 15.2669L3.81316 9.01352C4.63983 3.80019 7.05316 2.04019 12.2665 2.85352L18.5198 3.84019C22.7065 4.49352 24.6665 6.20019 24.8398 9.53352Z" stroke="white" stroke-width="1.5" stroke-linecap="round" stroke-linejoin="round"/>
<path d="M27.3333 17.9599L25.3333 23.9732C23.6666 28.9865 21 30.3199 15.9866 28.6532L9.97329 26.6532C6.94662 25.6532 5.26662 24.2665 4.78662 22.2399C5.79995 22.9599 7.18662 23.4399 8.98662 23.7199L15.24 24.7065C20.4533 25.5199 22.8666 23.7599 23.6933 18.5465L24.6666 12.2932C24.8266 11.2665 24.8933 10.3465 24.84 9.5332C28.0266 11.2265 28.72 13.7865 27.3333 17.9599Z" stroke="white" stroke-width="1.5" stroke-linecap="round" stroke-linejoin="round"/>
<path d="M10.9865 11.9735C12.2678 11.9735 13.3065 10.9348 13.3065 9.6535C13.3065 8.3722 12.2678 7.3335 10.9865 7.3335C9.7052 7.3335 8.6665 8.3722 8.6665 9.6535C8.6665 10.9348 9.7052 11.9735 10.9865 11.9735Z" stroke="white" stroke-width="1.5" stroke-linecap="round" stroke-linejoin="round"/>
</svg>
