<svg width="48" height="49" viewBox="0 0 48 49" fill="none" xmlns="http://www.w3.org/2000/svg">
<path d="M38.1401 38.6404C45.9601 30.8204 45.9601 18.1604 38.1401 10.3604" stroke="white" stroke-width="1.5" stroke-linecap="round" stroke-linejoin="round"/>
<path d="M9.86012 10.3604C2.04012 18.1804 2.04012 30.8404 9.86012 38.6404" stroke="white" stroke-width="1.5" stroke-linecap="round" stroke-linejoin="round"/>
<path d="M17.3999 43.3203C19.5399 44.0603 21.7599 44.4204 23.9999 44.4204C26.2399 44.4004 28.4599 44.0603 30.5999 43.3203" stroke="white" stroke-width="1.5" stroke-linecap="round" stroke-linejoin="round"/>
<path d="M17.3999 5.68018C19.5399 4.94018 21.7599 4.58008 23.9999 4.58008C26.2399 4.58008 28.4599 4.94018 30.5999 5.68018" stroke="white" stroke-width="1.5" stroke-linecap="round" stroke-linejoin="round"/>
<path d="M17.48 24.5003V21.1603C17.48 17.0003 20.42 15.3003 24.02 17.3803L26.92 19.0603L29.82 20.7403C33.42 22.8203 33.42 26.2203 29.82 28.3003L26.92 29.9803L24.02 31.6603C20.42 33.7403 17.48 32.0403 17.48 27.8803V24.5003Z" stroke="white" stroke-width="1.5" stroke-miterlimit="10" stroke-linecap="round" stroke-linejoin="round"/>
</svg>
