<svg width="619" height="319" viewBox="0 0 619 319" fill="none" xmlns="http://www.w3.org/2000/svg">
<path opacity="0.4" d="M593.863 87.5466C596.973 99.1527 592.711 112.322 581.953 126.3C571.207 140.263 554.093 154.875 531.872 169.268C487.438 198.048 422.779 225.827 348.429 245.749C274.079 265.671 204.193 273.943 151.322 271.236C124.881 269.882 102.755 265.785 86.4666 259.065C70.1614 252.338 59.8856 243.065 56.7758 231.459C53.6659 219.853 57.9282 206.684 68.6857 192.705C79.4317 178.742 96.5454 164.13 118.767 149.737C163.2 120.958 227.859 93.1786 302.21 73.2564C376.56 53.3343 446.446 45.0621 499.316 47.7694C525.757 49.1234 547.884 53.2207 564.172 59.9403C580.477 66.667 590.753 75.9404 593.863 87.5466Z" stroke="#B0D5FC" stroke-width="2"/>
<path opacity="0.4" d="M561.422 87.4709C564.532 99.077 560.269 112.246 549.512 126.224C538.766 140.187 521.652 154.799 499.43 169.192C454.997 197.972 390.338 225.751 315.988 245.673C241.637 265.595 171.751 273.867 118.881 271.16C92.4401 269.806 70.3133 265.709 54.0252 258.989C37.72 252.263 27.4442 242.989 24.3343 231.383C21.2245 219.777 25.4868 206.608 36.2443 192.63C46.9903 178.667 64.104 164.055 86.3256 149.662C130.759 120.882 195.418 93.1029 269.768 73.1807C344.119 53.2586 414.005 44.9864 466.875 47.6937C493.316 49.0477 515.443 53.1451 531.731 59.8646C548.036 66.5913 558.312 75.8648 561.422 87.4709Z" stroke="#B0D5FC" stroke-width="2"/>
<circle cx="538" cy="52.001" r="4" fill="#02B2E8"/>
<circle cx="114" cy="132.001" r="4" fill="#02B2E8"/>
</svg>
