<svg width="668" height="464" viewBox="0 0 668 464" fill="none" xmlns="http://www.w3.org/2000/svg">
<path d="M189.804 133.577H34.4839V266.689H189.804V133.577Z" fill="white"/>
<path d="M190.3 267.333H33.9771V132.933H190.3V267.333ZM34.9901 266.045H189.287V134.222H34.9901V266.045Z" fill="#EBEBEB"/>
<path d="M49.487 143.652C49.487 144.552 49.2773 145.431 48.8844 146.179C48.4914 146.927 47.9329 147.51 47.2795 147.854C46.6261 148.198 45.907 148.288 45.2133 148.113C44.5197 147.937 43.8825 147.504 43.3824 146.868C42.8822 146.232 42.5417 145.422 42.4037 144.539C42.2657 143.657 42.3365 142.743 42.6072 141.912C42.8778 141.081 43.3362 140.371 43.9243 139.871C44.5123 139.371 45.2037 139.104 45.911 139.104C46.8594 139.104 47.769 139.584 48.4396 140.436C49.1103 141.289 49.487 142.446 49.487 143.652Z" fill="#37474F"/>
<path d="M64.095 143.652C64.095 144.552 63.8852 145.431 63.4923 146.179C63.0993 146.927 62.5408 147.51 61.8874 147.854C61.234 148.198 60.5149 148.288 59.8213 148.113C59.1276 147.937 58.4904 147.504 57.9903 146.868C57.4902 146.232 57.1496 145.422 57.0116 144.539C56.8736 143.657 56.9444 142.743 57.2151 141.912C57.4857 141.081 57.9441 140.371 58.5322 139.871C59.1202 139.371 59.8116 139.104 60.5189 139.104C61.4673 139.104 62.3769 139.584 63.0476 140.436C63.7182 141.289 64.095 142.446 64.095 143.652Z" fill="#EBEBEB"/>
<path d="M78.7133 143.652C78.7153 144.555 78.5065 145.439 78.1132 146.191C77.7199 146.943 77.1599 147.529 76.5042 147.876C75.8485 148.223 75.1266 148.314 74.43 148.139C73.7334 147.963 73.0935 147.529 72.5914 146.89C72.0892 146.251 71.7475 145.438 71.6094 144.552C71.4714 143.666 71.5433 142.748 71.8159 141.914C72.0886 141.08 72.5498 140.368 73.1411 139.868C73.7324 139.367 74.4272 139.102 75.1373 139.104C76.0857 139.104 76.9953 139.584 77.6659 140.436C78.3366 141.289 78.7133 142.446 78.7133 143.652Z" fill="#C3E1FF"/>
<path d="M189.804 152.993H34.4839V154.281H189.804V152.993Z" fill="#EBEBEB"/>
<path d="M657.82 226.441H502.5V359.553H657.82V226.441Z" fill="white"/>
<path d="M658.326 360.197H501.993V225.797H658.326V360.197ZM503.006 358.909H657.313V227.085H503.006V358.909Z" fill="#EBEBEB"/>
<path d="M517.503 236.516C517.503 237.416 517.293 238.295 516.9 239.043C516.507 239.791 515.949 240.374 515.295 240.718C514.642 241.062 513.923 241.152 513.229 240.977C512.535 240.801 511.898 240.368 511.398 239.732C510.898 239.096 510.557 238.285 510.419 237.403C510.281 236.521 510.352 235.607 510.623 234.776C510.893 233.945 511.352 233.234 511.94 232.735C512.528 232.235 513.219 231.968 513.927 231.968C514.875 231.968 515.785 232.447 516.455 233.3C517.126 234.153 517.503 235.31 517.503 236.516Z" fill="#37474F"/>
<path d="M532.111 236.516C532.111 237.414 531.902 238.292 531.51 239.039C531.118 239.786 530.562 240.369 529.91 240.714C529.258 241.059 528.541 241.152 527.848 240.979C527.155 240.807 526.518 240.378 526.017 239.745C525.515 239.113 525.172 238.306 525.031 237.427C524.89 236.547 524.956 235.634 525.222 234.802C525.488 233.971 525.942 233.258 526.526 232.753C527.11 232.249 527.798 231.976 528.504 231.968C528.976 231.963 529.445 232.077 529.882 232.303C530.319 232.53 530.717 232.864 531.052 233.287C531.388 233.709 531.654 234.212 531.835 234.767C532.017 235.321 532.111 235.916 532.111 236.516Z" fill="#EBEBEB"/>
<path d="M546.739 236.516C546.739 237.416 546.529 238.295 546.136 239.043C545.743 239.791 545.185 240.374 544.531 240.718C543.878 241.062 543.159 241.152 542.465 240.977C541.772 240.801 541.134 240.368 540.634 239.732C540.134 239.096 539.794 238.285 539.656 237.403C539.518 236.521 539.588 235.607 539.859 234.776C540.13 233.945 540.588 233.234 541.176 232.735C541.764 232.235 542.456 231.968 543.163 231.968C544.111 231.968 545.021 232.447 545.692 233.3C546.362 234.153 546.739 235.31 546.739 236.516Z" fill="#C3E1FF"/>
<path d="M657.82 245.857H502.5V247.145H657.82V245.857Z" fill="#EBEBEB"/>
<path d="M143.629 264.216C143.63 266.962 143.206 269.682 142.38 272.219C141.555 274.757 140.343 277.063 138.816 279.005C137.289 280.947 135.476 282.487 133.481 283.537C131.486 284.587 129.347 285.127 127.187 285.125C126.894 285.125 126.62 285.125 126.347 285.125L97.09 285.203C92.7987 285.067 88.719 282.804 85.7216 278.896C82.7241 274.988 81.0464 269.746 81.0464 264.286C81.0464 258.827 82.7241 253.584 85.7216 249.677C88.719 245.769 92.7987 243.506 97.09 243.37H126.073C126.448 243.37 126.813 243.37 127.187 243.37C131.538 243.373 135.711 245.569 138.793 249.475C141.874 253.382 143.613 258.682 143.629 264.216Z" fill="#A6A6A6"/>
<path d="M97.2725 264.898C97.3021 264.119 97.502 263.365 97.8499 262.721C97.9917 262.425 98.1538 262.141 98.3058 261.858L99.3188 260.57C99.6936 260.222 100.079 259.848 100.464 259.526C102.052 258.238 103.825 257.363 105.681 256.949C109.954 255.867 114.354 255.867 118.627 256.949C120.455 257.376 122.199 258.251 123.764 259.526C124.179 259.874 124.564 260.26 124.959 260.621L125.972 261.832C126.225 262.301 126.459 262.787 126.671 263.288C126.837 263.8 126.975 264.325 127.086 264.86H126.793H118.617C118.546 264.891 118.469 264.891 118.398 264.861C118.326 264.83 118.265 264.771 118.222 264.692C117.993 264.122 117.65 263.639 117.226 263.293C116.802 262.946 116.314 262.749 115.811 262.721C113.349 262.521 110.878 262.521 108.416 262.721C107.912 262.746 107.423 262.943 106.999 263.289C106.575 263.636 106.232 264.12 106.005 264.692C105.934 264.834 105.883 264.937 105.721 264.937H97.2826L97.2725 264.898Z" fill="white"/>
<path d="M97.262 270.979V267.269C97.262 267.179 97.262 267.089 97.262 267.024H105.64C105.64 267.256 105.64 267.527 105.64 267.797C105.64 268.841 105.64 269.884 105.64 270.928C105.662 271.112 105.65 271.3 105.605 271.477C105.559 271.655 105.482 271.816 105.378 271.947C105.274 272.079 105.148 272.178 105.008 272.236C104.869 272.294 104.721 272.309 104.576 272.281H98.3359C98.1941 272.309 98.049 272.296 97.9119 272.242C97.7748 272.188 97.6494 272.094 97.5454 271.968C97.4415 271.842 97.3618 271.688 97.3127 271.516C97.2635 271.344 97.2462 271.161 97.262 270.979Z" fill="white"/>
<path d="M118.597 271.031C118.597 269.743 118.597 268.364 118.678 267.037H126.934C126.934 267.101 126.934 267.192 126.934 267.269C126.934 268.557 126.934 269.755 126.934 271.005C126.95 271.179 126.935 271.356 126.89 271.522C126.845 271.687 126.771 271.838 126.673 271.962C126.576 272.086 126.457 272.18 126.327 272.238C126.197 272.295 126.058 272.314 125.921 272.293H119.6C119.465 272.314 119.328 272.295 119.2 272.239C119.072 272.183 118.955 272.091 118.859 271.97C118.762 271.848 118.689 271.701 118.643 271.538C118.598 271.376 118.582 271.202 118.597 271.031Z" fill="white"/>
<path d="M0 424.473L83.5051 424.163L167 424.047L334 423.828L501 424.047L584.495 424.163L668 424.473L584.495 424.795L501 424.898L334 425.117L167 424.898L83.5051 424.782L0 424.473Z" fill="#263238"/>
<path d="M211.301 432.074H71.6934L60.8843 311.485H200.492L211.301 432.074Z" fill="#37474F"/>
<path d="M203.693 423.983H77.8527L68.4922 319.576H194.332L203.693 423.983Z" fill="white"/>
<path d="M290.217 423.983H146.922V432.074H290.217V423.983Z" fill="#37474F"/>
<path d="M290.206 423.983H218.087V432.074H290.206V423.983Z" fill="#263238"/>
<path d="M159.24 319.576L77.7809 423.171L75.3496 396.078L135.494 319.576H159.24Z" fill="#EBEBEB"/>
<path d="M201.565 400.2L182.864 423.983H159.118L199.133 373.093L201.565 400.2Z" fill="#EBEBEB"/>
<path d="M84.0825 319.576L70.0924 337.368L69.2617 328.13L75.9883 319.576H84.0825Z" fill="#EBEBEB"/>
<path d="M197.574 355.675L143.862 423.983H135.758L196.743 346.425L197.574 355.675Z" fill="#EBEBEB"/>
<path d="M94.6387 319.576L71.1665 349.427L70.9639 347.108L92.6126 319.576H94.6387Z" fill="#EBEBEB"/>
<path d="M170.88 319.576L88.7829 423.983H86.7568L168.854 319.576H170.88Z" fill="#EBEBEB"/>
<path d="M196.205 340.408L130.489 423.983H128.463L196.003 338.089L196.205 340.408Z" fill="#EBEBEB"/>
<path d="M455.869 432.074H595.486L606.285 311.485H466.678L455.869 432.074Z" fill="#37474F"/>
<path d="M463.477 423.983H589.327L598.678 319.576H472.838L463.477 423.983Z" fill="white"/>
<path d="M520.258 423.983H376.963V432.074H520.258V423.983Z" fill="#37474F"/>
<path d="M449.082 423.983H376.963V432.074H449.082V423.983Z" fill="#263238"/>
<path d="M595.061 360.017L592.002 394.106L568.509 423.983H544.764L595.061 360.017Z" fill="#EBEBEB"/>
<path d="M550.437 319.576L468.35 423.983H463.477L465.908 396.889L526.701 319.576H550.437Z" fill="#EBEBEB"/>
<path d="M496.958 319.576L469.737 354.193L470.781 342.56L488.853 319.576H496.958Z" fill="#EBEBEB"/>
<path d="M586.501 319.576L504.404 423.983H496.3L578.397 319.576H586.501Z" fill="#EBEBEB"/>
<path d="M596.226 347.004L595.972 349.916L537.733 423.983H535.707L596.226 347.004Z" fill="#EBEBEB"/>
<path d="M595.001 319.576L512.914 423.983H510.888L592.985 319.576H595.001Z" fill="#EBEBEB"/>
<path d="M518.536 319.576L466.952 385.178L467.215 382.267L516.51 319.576H518.536Z" fill="#EBEBEB"/>
<path d="M201.413 250.52C218.726 294.981 244.366 339.416 251.234 347.739C269.692 370.259 318.966 386.454 333.493 386.969C339.764 387.188 348.436 334.211 343.806 328.04C339.177 321.869 278.343 305.03 275.081 301.861C272.822 299.606 243.839 264.525 224.591 243.692C200.653 217.809 196.864 238.796 201.413 250.52Z" fill="#F7A9A0"/>
<path d="M330.373 320.632L314.661 383.697C314.661 383.697 263.178 366.471 249.4 349.62C235.623 332.768 207.086 272.448 201.514 252.556C195.942 232.664 199.569 216.959 224.814 242.765C250.059 268.57 271.464 294.968 275.932 299.22C280.399 303.471 330.373 320.632 330.373 320.632Z" fill="#455A64"/>
<path d="M314.428 323.157C314.504 323.787 314.725 324.374 315.063 324.844C315.402 325.314 315.842 325.646 316.328 325.797C316.815 325.949 317.326 325.913 317.797 325.696C318.268 325.478 318.677 325.087 318.973 324.573C319.27 324.06 319.439 323.446 319.461 322.809C319.483 322.173 319.356 321.542 319.096 320.997C318.836 320.453 318.455 320.019 318.001 319.749C317.547 319.48 317.04 319.388 316.545 319.486C315.881 319.616 315.286 320.076 314.889 320.764C314.492 321.453 314.326 322.313 314.428 323.157Z" fill="#263238"/>
<path d="M301.816 318.532C301.89 319.163 302.11 319.751 302.447 320.223C302.784 320.695 303.224 321.029 303.711 321.182C304.198 321.336 304.709 321.302 305.181 321.085C305.653 320.869 306.063 320.479 306.36 319.965C306.658 319.452 306.828 318.837 306.851 318.2C306.873 317.563 306.746 316.932 306.486 316.386C306.226 315.841 305.845 315.406 305.39 315.137C304.936 314.867 304.429 314.776 303.933 314.873C303.605 314.936 303.29 315.081 303.006 315.299C302.722 315.517 302.474 315.804 302.277 316.144C302.081 316.484 301.939 316.87 301.86 317.279C301.78 317.689 301.765 318.115 301.816 318.532Z" fill="#263238"/>
<path d="M276.682 368.069C265.407 362.503 254.658 356.023 249.4 349.62C235.623 332.871 207.086 272.448 201.514 252.556C197.948 239.84 198.141 228.837 205.333 229.288L276.682 368.069Z" fill="#263238"/>
<path d="M119.295 423.957H249.268C249.795 417.915 223.051 249.49 210.317 228.374C207.592 223.852 198.606 222.602 190.978 223.813C188.985 224.101 187.016 224.61 185.092 225.333C185.031 225.369 184.966 225.394 184.9 225.411C183.345 225.978 181.88 226.889 180.574 228.103C159.331 249.709 118.272 422.476 119.295 423.957Z" fill="#455A64"/>
<path d="M199.741 266.483L205.272 252.801L212.404 262.695L210.661 272.551L203.611 273.698L199.741 266.483Z" fill="#263238"/>
<path d="M203.611 273.698L200.248 374.356L215.079 407.647L222.778 370.182L210.662 272.551L203.611 273.698Z" fill="#263238"/>
<path d="M203.408 250.971C201.382 250.868 187.787 237.366 183.613 226.841C183.33 226.119 184.383 218.698 185.325 209.59C185.873 204.063 186.339 197.892 186.541 192.223C186.541 191.05 189.631 193.331 189.631 193.331L195.355 195.341L214.298 202.053C214.298 202.053 211.259 213.828 211.016 223.723C211.007 224.508 211.051 225.292 211.148 226.068C211.155 226.196 211.155 226.325 211.148 226.454C211.634 230.899 206.761 251.139 203.408 250.971Z" fill="#F7A9A0"/>
<path d="M211.148 226.042C211.155 226.171 211.155 226.3 211.148 226.428C210.192 226.548 209.229 226.57 208.271 226.493C189.438 225.204 187.888 194.593 187.888 194.593L195.324 195.315L214.268 202.027C214.268 202.027 211.229 213.803 210.986 223.697C210.987 224.483 211.041 225.268 211.148 226.042Z" fill="#263238"/>
<path d="M182.145 150.532C179.298 163.222 185.093 199.566 192.275 207.528C202.679 219.123 219.455 219.793 227.094 203.947C234.499 188.602 226.303 141.41 218.3 134.209C206.529 123.606 186.339 131.774 182.145 150.532Z" fill="#F7A9A0"/>
<path d="M210.408 171.687C210.408 171.596 210.277 171.841 210.297 171.931C210.732 174.366 210.925 177.252 209.284 178.502C209.233 178.502 209.284 178.669 209.284 178.644C211.421 177.716 211.168 173.903 210.408 171.687Z" fill="#263238"/>
<path d="M208.322 169.561C205.181 170.037 206.164 177.999 209.071 177.561C211.979 177.123 210.956 169.149 208.322 169.561Z" fill="#263238"/>
<path d="M221.724 169.844C221.724 169.741 221.887 169.922 221.897 170.025C222.14 172.511 222.748 175.294 224.602 175.758C224.662 175.758 224.672 175.9 224.602 175.9C222.413 175.951 221.643 172.241 221.724 169.844Z" fill="#263238"/>
<path d="M223.132 166.92C226.171 165.992 227.447 173.903 224.59 174.753C221.734 175.603 220.538 167.693 223.132 166.92Z" fill="#263238"/>
<path d="M205.404 166.404C206.19 165.937 206.955 165.412 207.694 164.833C208.561 164.425 209.298 163.664 209.791 162.668C209.896 162.316 209.908 161.93 209.824 161.569C209.739 161.208 209.564 160.893 209.325 160.671C208.799 160.325 208.21 160.164 207.618 160.205C207.027 160.246 206.455 160.487 205.961 160.903C204.861 161.552 203.988 162.694 203.51 164.111C203.416 164.443 203.399 164.802 203.463 165.145C203.527 165.489 203.668 165.801 203.868 166.044C204.069 166.287 204.321 166.451 204.594 166.515C204.867 166.579 205.148 166.54 205.404 166.404Z" fill="#263238"/>
<path d="M225.058 162.423C224.166 162.423 223.346 162.217 222.474 162.101C221.548 162.151 220.636 161.806 219.881 161.122C219.673 160.854 219.542 160.506 219.509 160.132C219.476 159.758 219.543 159.38 219.699 159.061C220.079 158.484 220.573 158.046 221.13 157.792C221.688 157.539 222.288 157.479 222.87 157.618C224.083 157.675 225.237 158.298 226.111 159.37C226.296 159.631 226.418 159.955 226.462 160.303C226.506 160.65 226.471 161.007 226.359 161.329C226.248 161.651 226.066 161.926 225.835 162.12C225.604 162.314 225.334 162.419 225.058 162.423Z" fill="#263238"/>
<path d="M211.473 194.941C212.009 195.418 212.577 196.126 213.286 196.062C214.012 195.903 214.703 195.547 215.312 195.018C215.325 195.012 215.339 195.011 215.352 195.015C215.365 195.019 215.377 195.027 215.387 195.039C215.396 195.051 215.403 195.067 215.406 195.084C215.409 195.101 215.408 195.118 215.403 195.134C215.187 195.674 214.86 196.129 214.457 196.451C214.054 196.773 213.59 196.951 213.114 196.964C212.701 196.911 212.31 196.704 211.989 196.37C211.668 196.035 211.432 195.587 211.31 195.083C211.26 194.954 211.422 194.864 211.473 194.941Z" fill="#263238"/>
<path d="M218.867 188.873C218.215 190.394 217.266 191.676 216.112 192.596C215.473 193.074 214.732 193.281 213.995 193.189C212.374 192.983 212.12 191.192 212.212 189.582C212.266 188.732 212.398 187.893 212.607 187.082C214.491 188.511 216.684 189.138 218.867 188.873Z" fill="white"/>
<path d="M212.607 187.147C213.226 188.02 213.98 188.721 214.822 189.207C215.664 189.692 216.575 189.952 217.5 189.968C218.309 190 219.118 189.883 219.901 189.62C220.053 189.589 220.203 189.537 220.346 189.466C220.478 189.466 220.61 189.376 220.762 189.298C220.861 189.251 220.946 189.164 221.002 189.05C221.059 188.936 221.085 188.801 221.076 188.667C221.07 188.582 221.053 188.5 221.025 188.422V188.203C220.833 186.296 220.326 183.436 220.326 183.436C220.914 183.681 223.892 184.725 223.73 183.733C222.332 175.59 220.772 166.546 218.027 158.816C218.008 158.765 217.975 158.724 217.934 158.701C217.893 158.678 217.847 158.676 217.805 158.693C217.763 158.71 217.727 158.747 217.704 158.796C217.682 158.845 217.674 158.902 217.682 158.958C218.776 166.842 220.964 174.418 222.18 182.341C221.116 181.95 220.015 181.751 218.908 181.749C218.705 181.877 219.921 187.263 219.992 188.126V188.216C217.53 189.131 215.514 188.538 212.82 186.928C212.597 186.773 212.435 186.966 212.607 187.147Z" fill="#263238"/>
<path d="M185.508 178.876C192.326 177.587 191.84 161.573 191.84 161.573C191.84 161.573 203.277 156.948 203.692 145.417C203.692 145.417 215.849 152.387 224.135 146.706C232.422 141.024 229.14 128.811 227.863 126.298C226.587 123.786 222.312 129.687 222.312 129.687C222.312 129.687 220.934 122.665 219.364 122.214C217.794 121.763 216.649 126.376 216.649 126.376C216.649 126.376 204.827 123.67 194.646 125.938C184.465 128.205 180.909 142.299 180.909 142.299C180.909 142.299 175.611 144.786 174.405 150.03C173.2 155.273 181.152 179.661 185.508 178.876Z" fill="#263238"/>
<path d="M189.135 162.191C198.374 162.037 203.51 153.263 203.56 141.977C203.567 141.955 203.578 141.935 203.594 141.921C203.609 141.907 203.628 141.899 203.647 141.899C203.665 141.899 203.684 141.907 203.699 141.921C203.715 141.935 203.726 141.955 203.733 141.977C204.644 152.284 198.414 165.168 189.104 162.733C188.841 162.655 188.851 162.191 189.135 162.191Z" fill="#263238"/>
<path d="M181.131 142.016C181.153 142.01 181.175 142.013 181.195 142.025C181.215 142.037 181.232 142.057 181.242 142.082C181.252 142.106 181.256 142.135 181.252 142.162C181.249 142.19 181.238 142.216 181.223 142.235C178.852 144.206 176.076 145.855 174.628 149.128C172.885 153.083 173.878 157.656 175.154 161.547C177.11 167.564 180.584 175.217 185.396 178.077C185.68 178.244 185.467 178.76 185.194 178.618C179.46 175.642 175.185 165.67 173.615 158.442C171.852 150.352 175.347 144.876 181.131 142.016Z" fill="#263238"/>
<path d="M213.995 146.796C218.341 149.115 224.277 148.084 227.792 143.936C232.067 138.782 230.254 132.018 227.519 126.569C227.387 126.311 227.681 125.937 227.863 126.182C231.277 130.782 232.402 138.525 229.008 143.652C225.614 148.78 218.482 150.094 213.691 147.517C213.296 147.35 213.589 146.577 213.995 146.796Z" fill="#263238"/>
<path d="M208.828 186.103C207.255 186.181 205.696 185.695 204.33 184.701C202.963 183.708 201.843 182.246 201.097 180.483C200.351 178.719 200.01 176.725 200.112 174.727C200.214 172.729 200.754 170.807 201.673 169.181C202.591 167.555 203.85 166.289 205.306 165.528C206.762 164.766 208.357 164.54 209.909 164.875C211.461 165.21 212.908 166.093 214.085 167.422C215.263 168.752 216.123 170.475 216.568 172.395C217.196 175.113 216.95 178.037 215.885 180.525C214.819 183.013 213.021 184.862 210.885 185.665C210.216 185.917 209.525 186.064 208.828 186.103ZM208.23 166.16C207.627 166.197 207.029 166.322 206.448 166.533C204.673 167.201 203.165 168.705 202.232 170.737C201.298 172.769 201.009 175.178 201.423 177.472C201.837 179.766 202.923 181.773 204.46 183.085C205.997 184.396 207.869 184.913 209.695 184.53C211.521 184.148 213.164 182.894 214.289 181.025C215.413 179.156 215.936 176.812 215.749 174.47C215.562 172.128 214.681 169.965 213.284 168.421C211.887 166.877 210.08 166.068 208.23 166.16Z" fill="#455A64"/>
<path d="M227.863 182.238C224.652 182.393 221.613 178.373 220.934 172.846C220.578 170.22 220.875 167.517 221.785 165.116C222.153 164.074 222.714 163.161 223.42 162.455C224.125 161.748 224.955 161.269 225.837 161.058C226.726 160.914 227.628 161.048 228.466 161.447C229.305 161.847 230.054 162.5 230.649 163.351C232.088 165.289 233.019 167.746 233.314 170.385C234.023 176.209 231.834 181.504 228.431 182.174C228.243 182.216 228.054 182.237 227.863 182.238ZM226.425 162.41H225.999C225.297 162.596 224.639 162.992 224.08 163.566C223.522 164.139 223.079 164.874 222.788 165.709C221.986 167.844 221.727 170.244 222.048 172.576C222.666 177.613 225.432 181.272 228.238 180.718C231.044 180.164 232.807 175.564 232.189 170.553C231.938 168.212 231.12 166.028 229.849 164.304C229.411 163.705 228.882 163.226 228.293 162.898C227.704 162.57 227.068 162.4 226.425 162.398V162.41Z" fill="#455A64"/>
<path d="M216.486 173.709L215.646 172.769C216.74 171.171 219.424 168.788 221.795 171.145L221.106 172.266C218.938 170.153 216.537 173.568 216.486 173.709Z" fill="#455A64"/>
<path d="M179.774 183.758L178.761 183.307C178.923 182.676 180.453 177.111 182.813 176.106C185.173 175.101 200.176 173.993 200.815 173.941L200.886 175.371C196.55 175.706 184.91 176.737 183.167 177.458C181.425 178.18 180.179 182.238 179.774 183.758Z" fill="#455A64"/>
<path d="M189.844 180.486C189.844 180.486 183.006 169.02 178.882 172.176C174.759 175.333 180.169 192.158 185.184 194.258C185.812 194.574 186.484 194.726 187.159 194.706C187.835 194.687 188.5 194.495 189.117 194.144C189.733 193.792 190.288 193.287 190.748 192.658C191.209 192.03 191.566 191.29 191.799 190.483L189.844 180.486Z" fill="#F7A9A0"/>
<path d="M180.534 176.956C180.453 176.956 180.443 177.085 180.534 177.123C184.06 178.734 186.005 182.728 187.413 186.889C186.329 185.317 184.901 184.493 183.229 186.129C183.214 186.151 183.205 186.178 183.203 186.207C183.201 186.235 183.206 186.264 183.217 186.289C183.228 186.315 183.244 186.335 183.265 186.348C183.285 186.36 183.308 186.365 183.33 186.361C183.933 186.086 184.587 186.055 185.204 186.272C185.82 186.488 186.369 186.943 186.775 187.572C187.451 188.624 188.032 189.769 188.507 190.986C188.689 191.372 189.236 191.128 189.105 190.677V190.587C188.953 184.969 185.286 177.278 180.534 176.956Z" fill="#263238"/>
<path d="M211.25 226.918L204.483 248.034L183.979 221.365L178.133 229.907C178.133 229.907 198.171 272.242 198.293 270.335L205.141 252.221L214.957 264.86L214.218 233.192L211.25 226.918Z" fill="#455A64"/>
<path d="M215.292 249.232C215.028 244.001 214.876 238.732 214.43 233.54C214.43 233.347 214.187 233.269 214.147 233.54C213.316 238.577 214.4 258.547 214.37 263.326C213.964 262.785 205.252 252.208 205.181 252.376C203.702 255.249 198.678 268.441 198.333 269.639C195.162 262.914 183.026 238.461 179.268 232.097C179.247 232.062 179.216 232.038 179.183 232.029C179.149 232.021 179.113 232.028 179.084 232.051C179.054 232.073 179.031 232.108 179.02 232.15C179.009 232.192 179.011 232.237 179.025 232.277C181.821 239.389 197.887 272.306 198.141 272.216C200.78 265.994 203.167 259.604 205.293 253.071C206.762 255.364 215.535 267.243 215.565 266.522C215.715 260.756 215.624 254.985 215.292 249.232Z" fill="#263238"/>
<path d="M253.736 447.199L152.523 459.941L152.199 360.159L253.412 347.404L253.736 447.199Z" fill="#C3E1FF"/>
<path d="M185.234 344.956L152.108 349.13L152.199 360.159L187.645 355.688L185.234 344.956Z" fill="#C3E1FF"/>
<g opacity="0.1">
<path d="M253.736 447.199L152.523 459.941L152.199 360.158L253.412 347.404L253.736 447.199Z" fill="black"/>
<path d="M185.234 344.956L152.108 349.13L152.199 360.159L187.645 355.688L185.234 344.956Z" fill="black"/>
</g>
<path d="M253.666 447.212L156.049 459.503L142.089 359.437L246.139 348.331L253.666 447.212Z" fill="#EBEBEB"/>
<path d="M253.666 447.212L153.567 459.812L138.604 363.637L243.829 350.393L253.666 447.212Z" fill="white"/>
<path d="M253.483 447.238L152.057 460.005L137.247 365.904L238.682 353.137L253.483 447.238Z" fill="#C3E1FF"/>
<path d="M166.97 243.177C132.375 283.115 107.403 351.913 108.214 370.452C109.227 394.931 144.116 436.828 166.838 448.951C172.582 452.017 194.808 392.187 186.4 389.069C177.526 385.784 157.022 362.13 156.009 361.047C153.881 358.754 170.414 306.409 177.333 274.638C185.083 238.758 181.527 226.377 166.97 243.177Z" fill="#F7A9A0"/>
<path d="M153.952 439.804C175.966 460.005 205.871 464.386 211.027 463.716C215.434 463.162 217.693 462.827 217.693 462.827C225.605 462.041 228.441 457.274 228.441 457.274C228.441 457.274 237.802 459.773 239.929 452.842C242.34 445.112 228.725 443.064 221.775 436.094C205.84 420.234 186.673 392.019 182.439 386.866L153.952 439.804Z" fill="#F7A9A0"/>
<path d="M195.892 434.445C200.653 438.992 205.243 443.618 210.46 447.328C216.194 451.386 222.241 454.079 228.35 457.016C228.383 457.039 228.408 457.075 228.422 457.119C228.437 457.163 228.439 457.211 228.428 457.257C228.417 457.302 228.395 457.341 228.364 457.368C228.333 457.394 228.296 457.407 228.259 457.403C215.955 453.859 204.649 446.097 195.568 434.96C195.355 434.754 195.649 434.226 195.892 434.445Z" fill="#263238"/>
<path d="M186.967 445.292C191.789 449.389 200.308 456.527 217.743 462.595C217.804 462.595 217.794 462.737 217.743 462.724C206.363 460.912 195.602 455.113 186.663 445.975C186.369 445.64 186.643 445.06 186.967 445.292Z" fill="#263238"/>
<path d="M203.52 415.493C202.092 412.375 203.368 411.396 208.048 413.741C212.729 416.086 229.738 430.489 233.172 422.476C236.606 414.462 212.435 394.712 204.331 391.568C196.226 388.425 182.418 386.917 182.418 386.917C186.542 391.981 195.568 405.444 203.52 415.493Z" fill="#F7A9A0"/>
<path d="M154.742 444.3L182.307 385.462C182.307 385.462 156.515 362.452 156.393 360.159C156.271 357.865 174.516 294.453 180.027 263.249C185.538 232.046 182.813 217.165 158.662 251.95C134.511 286.736 103.543 345.265 105.184 370.349C106.825 395.433 154.742 444.3 154.742 444.3Z" fill="#455A64"/>
<path d="M175.449 293.036C174.436 295.265 173.372 297.455 172.47 299.748C172.166 300.495 171.873 301.243 171.579 301.99C171.802 301.088 172.035 300.199 172.268 299.297C173.676 293.641 175.043 287.96 176.239 282.214C176.248 282.181 176.247 282.145 176.236 282.114C176.224 282.083 176.204 282.058 176.178 282.046C176.153 282.034 176.124 282.036 176.1 282.05C176.075 282.065 176.056 282.091 176.046 282.123C172.865 291.863 170.231 301.9 167.618 311.91C165.004 321.92 162.553 332.137 160.162 342.315C158.845 348.009 157.487 353.73 156.454 359.514C156.46 359.534 156.47 359.551 156.484 359.563C156.497 359.575 156.514 359.582 156.53 359.582C156.547 359.582 156.563 359.575 156.576 359.563C156.59 359.551 156.6 359.534 156.606 359.514C158.126 354.554 159.412 349.465 160.729 344.415C162.046 339.365 163.383 334.327 164.67 329.277C166.696 321.212 168.722 313.143 170.748 305.069C171.614 303.556 172.355 301.932 172.957 300.225C173.899 297.88 174.648 295.432 175.479 293.036H175.449Z" fill="#263238"/>
<path d="M149.85 429.523C149.694 430.129 149.683 430.779 149.818 431.393C149.953 432.007 150.228 432.555 150.609 432.97C150.989 433.385 151.458 433.647 151.955 433.722C152.453 433.798 152.957 433.685 153.404 433.396C153.85 433.107 154.22 432.657 154.465 432.101C154.71 431.546 154.821 430.91 154.782 430.275C154.743 429.639 154.557 429.033 154.247 428.532C153.937 428.031 153.517 427.659 153.041 427.462C152.403 427.201 151.709 427.271 151.112 427.657C150.514 428.043 150.061 428.714 149.85 429.523Z" fill="#263238"/>
<path d="M140.214 418.198C140.06 418.804 140.051 419.455 140.188 420.068C140.325 420.68 140.601 421.228 140.983 421.64C141.364 422.053 141.833 422.313 142.33 422.387C142.828 422.461 143.331 422.346 143.777 422.056C144.223 421.766 144.591 421.315 144.835 420.759C145.08 420.203 145.189 419.567 145.149 418.932C145.109 418.297 144.922 417.692 144.612 417.192C144.302 416.692 143.882 416.321 143.405 416.124C143.089 415.994 142.755 415.944 142.423 415.977C142.091 416.011 141.768 416.127 141.472 416.32C141.175 416.513 140.912 416.778 140.696 417.1C140.48 417.422 140.317 417.796 140.214 418.198Z" fill="#263238"/>
<path d="M122.892 406.59C126.083 410.043 129.082 413.754 132.009 417.49C133.489 419.371 134.957 421.252 136.406 423.158C137.855 425.065 139.283 427.023 140.711 428.969C137.413 425.727 134.298 422.192 131.392 418.392C128.39 414.659 125.553 410.719 122.892 406.59Z" fill="#263238"/>
<path d="M475.826 141.011C477.994 132.147 487.476 112.668 502.783 118.53C524.574 126.904 523.743 181.865 533.57 200.275C551.359 233.514 549.778 264.1 532.921 266.998C514.068 270.232 497.992 242.906 502.722 188.512C505.681 154.5 499.248 138.499 493.838 138.872C488.428 139.246 484.842 147.453 484.842 147.453L475.826 141.011Z" fill="#263238"/>
<path d="M476.768 137.674C478.181 133.594 479.981 129.748 482.127 126.221C484.283 122.588 487.012 119.569 490.14 117.357C493.362 115.109 497.058 114.207 500.706 114.78C504.344 115.347 507.82 117.027 510.836 119.676C513.744 122.401 516.162 125.884 517.927 129.893C519.668 133.827 521.048 138.003 522.04 142.338C523.893 150.921 524.98 159.741 525.282 168.633C524.227 159.906 522.655 151.293 520.582 142.866C519.487 138.755 518.065 134.796 516.337 131.052C514.654 127.358 512.379 124.154 509.661 121.647C506.926 119.218 503.777 117.646 500.473 117.061C497.181 116.444 493.819 117.123 490.839 119.006C487.804 120.963 485.097 123.65 482.866 126.917C481.704 128.552 480.618 130.273 479.614 132.07C478.615 133.917 477.666 135.785 476.768 137.674Z" fill="#263238"/>
<path d="M503.968 169.664C503.796 175.101 503.148 180.486 502.672 185.871C502.196 191.256 501.598 196.616 501.193 201.988C500.787 207.361 500.524 212.746 500.554 218.118C500.509 223.464 500.879 228.802 501.659 234.055C502.373 239.263 503.858 244.252 506.035 248.755C508.343 253.159 511.24 257.014 514.595 260.144C517.953 263.324 521.855 265.447 525.982 266.341C528.055 266.801 530.167 266.914 532.263 266.676C533.313 266.552 534.355 266.336 535.383 266.032C536.44 265.763 537.463 265.307 538.422 264.679C536.559 266.08 534.491 266.983 532.344 267.333C530.203 267.765 528.027 267.843 525.87 267.565C523.702 267.246 521.573 266.592 519.529 265.62C517.489 264.614 515.545 263.317 513.734 261.755C511.916 260.195 510.22 258.418 508.669 256.447L507.544 254.939L506.461 253.38C505.726 252.328 505.049 251.214 504.434 250.044C502.089 245.324 500.476 240.076 499.683 234.584C498.062 223.671 498.559 212.591 499.633 201.821C500.17 196.41 500.909 191.05 501.659 185.717C502.408 180.383 503.361 175.036 503.968 169.664Z" fill="#263238"/>
<path d="M474.489 141.011C474.428 138.434 475.877 135.175 477.173 134.724C478.47 134.273 488.074 139.517 488.904 142.66C489.735 145.804 485.45 148.561 485.45 148.561L474.489 141.011Z" fill="#455A64"/>
<path d="M481.904 253.484C476.191 269.279 433.724 343.526 412.642 345.549C390.578 347.674 337.677 301.822 332.612 297.996C318.703 287.535 357.492 239.247 364.199 247.75C375.403 262.09 402.198 289.093 408.773 287.277C422.55 283.412 451.229 252.801 471.581 236.851C483.778 227.33 488.215 236.001 481.904 253.484Z" fill="#AD6359"/>
<path d="M335.904 300.457C333.513 298.434 314.205 284.79 306.961 271.649C303.132 264.692 294.288 244.079 297.327 240.523C300.103 237.328 303.618 242.236 303.618 242.236C303.618 242.236 299.779 232.947 303.679 228.567C307.579 224.187 313.181 232.857 313.181 232.857C313.181 232.857 309.788 222.95 313.921 218.943C318.054 214.936 322.532 224.831 322.532 224.831C322.532 224.831 319.098 215.967 323.596 214.524C329.015 212.733 333.898 229.984 339.146 236.632C340.331 238.139 365.009 264.976 365.009 264.976L335.904 300.457Z" fill="#AD6359"/>
<path d="M322.856 224.831C326.472 237.508 329.775 242.262 338.051 250.404C338.213 250.559 338.051 250.907 337.879 250.752C329.238 243.718 324.416 238.513 322.39 224.985C322.248 224.354 322.663 224.225 322.856 224.831Z" fill="#263238"/>
<path d="M313.486 232.793C318.136 245.547 321.692 250.739 329.836 260.08C329.948 260.209 329.786 260.466 329.664 260.35C321.063 252.041 316.353 246.72 313.01 233.192C312.858 232.587 313.273 232.213 313.486 232.793Z" fill="#263238"/>
<path d="M304.024 242.674C309.231 254.604 312.929 260.518 321.752 268.287C321.797 268.321 321.829 268.376 321.841 268.44C321.853 268.504 321.845 268.572 321.818 268.628C321.791 268.684 321.748 268.725 321.698 268.741C321.647 268.756 321.594 268.746 321.55 268.712C311.946 261.896 307.286 254.54 303.751 242.945C303.518 242.12 303.7 241.914 304.024 242.674Z" fill="#263238"/>
<path d="M373.366 261.072C373.366 261.072 367.896 245.676 364.31 239.582C360.724 233.488 340.827 217.049 337.788 222.318C333.868 229.108 343.867 241.489 349.418 246.733C349.418 246.733 340.301 262.45 346.014 273.311C351.728 284.172 373.366 261.072 373.366 261.072Z" fill="#AD6359"/>
<path d="M337.191 224.625C337.13 234.107 344.738 240.407 349.803 245.998C349.884 246.075 349.948 246.176 349.99 246.292C350.033 246.408 350.052 246.536 350.046 246.663C350.04 246.791 350.009 246.915 349.956 247.023C349.903 247.132 349.83 247.223 349.743 247.287C346.288 254.205 342.986 265.233 345.599 273.221C345.618 273.267 345.622 273.321 345.609 273.37C345.597 273.42 345.57 273.461 345.533 273.485C345.497 273.509 345.455 273.514 345.416 273.498C345.377 273.482 345.345 273.447 345.326 273.401C341.608 265.323 344.151 254.153 348.365 246.887C343.097 241.257 335.682 234.519 337.161 224.637C337.13 224.573 337.191 224.573 337.191 224.625Z" fill="#263238"/>
<path d="M481.326 257.967C474.711 274.715 436.155 346.231 415.327 347.365C394.499 348.499 350.877 325.901 350.877 325.901L383.193 263.301C383.193 263.301 405.571 283.837 409.086 283.992C412.602 284.146 459.617 244.684 470.558 236.001C481.499 227.317 492.034 230.706 481.326 257.967Z" fill="#C3E1FF"/>
<path d="M380.387 326.365C380.231 324.46 380.268 322.538 380.498 320.645C380.685 318.746 381.06 316.885 381.613 315.105C381.769 317.01 381.731 318.933 381.501 320.825C381.312 322.724 380.938 324.585 380.387 326.365Z" fill="white"/>
<path d="M444.725 313.83C444.574 311.924 444.611 310.003 444.836 308.109C445.021 306.209 445.399 304.347 445.96 302.57C446.216 306.393 445.794 310.241 444.725 313.83Z" fill="white"/>
<path d="M448.292 266.2C446.793 266.394 445.281 266.342 443.794 266.045C442.299 265.817 440.835 265.34 439.438 264.628C440.936 264.436 442.447 264.483 443.935 264.769C445.43 265.007 446.894 265.488 448.292 266.2Z" fill="white"/>
<path d="M396.434 287.805C394.939 287.993 393.431 287.941 391.946 287.65C390.451 287.425 388.986 286.949 387.59 286.233C389.085 286.041 390.592 286.089 392.078 286.375C393.572 286.611 395.036 287.092 396.434 287.805Z" fill="white"/>
<path d="M404 345.961C403.942 346.065 403.877 346.163 403.808 346.256H403.545L404 345.961Z" fill="white"/>
<path d="M367.43 303.884C369.364 300.958 371.787 298.617 374.521 297.03C373.569 298.514 372.473 299.839 371.259 300.972C370.086 302.147 368.799 303.126 367.43 303.884Z" fill="white"/>
<path d="M421.354 289.66C422.308 288.179 423.404 286.854 424.616 285.718C425.804 284.543 427.104 283.565 428.486 282.806C427.537 284.294 426.44 285.619 425.224 286.748C424.036 287.923 422.736 288.902 421.354 289.66Z" fill="white"/>
<path d="M403.463 309.295C405.777 311.739 407.62 314.824 408.853 318.313C406.546 315.861 404.703 312.778 403.463 309.295Z" fill="white"/>
<path d="M454.663 279.933C456.967 282.386 458.806 285.469 460.042 288.952C458.876 287.749 457.837 286.359 456.953 284.816C456.03 283.319 455.26 281.678 454.663 279.933Z" fill="white"/>
<path d="M390.193 273.466C386.14 282.832 382.2 292.289 377.803 301.41C373.554 310.519 368.928 319.335 363.945 327.821C363.922 327.848 363.893 327.864 363.862 327.868C363.832 327.872 363.801 327.863 363.775 327.843C363.748 327.822 363.728 327.792 363.717 327.755C363.705 327.719 363.703 327.678 363.712 327.641C367.602 318.3 372.049 309.282 376.375 300.263C380.7 291.245 385.381 282.304 389.727 273.208C389.899 272.847 390.345 273.105 390.193 273.466Z" fill="#263238"/>
<path d="M481.327 257.967C474.712 274.715 436.155 346.231 415.327 347.365C410.262 347.636 403.87 346.515 397.092 344.647C413.301 322.629 458.554 260.531 479.513 231.788C485.865 231.298 488.995 238.616 481.327 257.967Z" fill="#263238"/>
<path d="M442.902 423.957H565.145C565.145 423.957 517.613 270.915 492.298 240.123C485.419 231.762 468.42 232.393 460.093 246.501C453.265 258.096 434.311 304.141 433.45 320.722C432.589 337.303 442.81 353.652 442.81 353.652L442.902 423.957Z" fill="#C3E1FF"/>
<path d="M458.523 366.613C458.371 364.712 458.409 362.795 458.634 360.906C458.819 359.005 459.197 357.143 459.758 355.366C459.911 357.267 459.87 359.185 459.637 361.073C459.45 362.972 459.076 364.833 458.523 366.613Z" fill="white"/>
<path d="M542.524 395.42C542.387 393.5 542.441 391.565 542.686 389.662C542.872 387.761 543.25 385.899 543.811 384.122C543.963 386.027 543.923 387.95 543.689 389.842C543.488 391.757 543.097 393.631 542.524 395.42Z" fill="white"/>
<path d="M489.786 420.582C489.635 418.681 489.672 416.763 489.897 414.874C490.083 412.974 490.461 411.112 491.022 409.334C491.174 411.236 491.134 413.154 490.9 415.042C490.713 416.941 490.339 418.802 489.786 420.582Z" fill="white"/>
<path d="M477.629 305.069C477.481 303.167 477.522 301.25 477.75 299.362C477.927 297.46 478.302 295.597 478.865 293.822C479.132 297.642 478.71 301.489 477.629 305.069Z" fill="white"/>
<path d="M510.117 351.591C509.978 349.679 510.029 347.753 510.268 345.858C510.45 343.958 510.825 342.096 511.383 340.318C511.652 344.142 511.229 347.994 510.147 351.578L510.117 351.591Z" fill="white"/>
<path d="M444.725 313.83C444.574 311.924 444.611 310.003 444.836 308.109C445.021 306.209 445.399 304.347 445.96 302.57C446.216 306.393 445.794 310.241 444.725 313.83Z" fill="white"/>
<path d="M487.719 359.566C484.713 359.903 481.686 359.37 478.865 358.007C480.363 357.809 481.875 357.856 483.363 358.149C484.856 358.388 486.319 358.864 487.719 359.566Z" fill="white"/>
<path d="M524.593 315.105C523.095 315.297 521.584 315.249 520.095 314.963C518.601 314.727 517.137 314.247 515.739 313.533C518.746 313.208 521.772 313.745 524.593 315.105Z" fill="white"/>
<path d="M458.797 411.86C457.302 412.048 455.794 411.996 454.309 411.705C452.814 411.48 451.349 411.003 449.953 410.288C451.448 410.096 452.956 410.143 454.441 410.43C455.935 410.666 457.4 411.146 458.797 411.86Z" fill="white"/>
<path d="M527.39 373.338C525.892 373.537 524.38 373.489 522.892 373.197C521.399 372.957 519.935 372.481 518.536 371.779C520.034 371.581 521.545 371.629 523.034 371.921C524.526 372.16 525.99 372.636 527.39 373.338Z" fill="white"/>
<path d="M469.515 394.467C470.47 392.99 471.565 391.67 472.777 390.538C473.963 389.358 475.263 388.38 476.647 387.626C474.715 390.552 472.292 392.889 469.556 394.467H469.515Z" fill="white"/>
<path d="M515.739 405.702C516.688 404.214 517.785 402.889 519.001 401.759C520.189 400.585 521.49 399.606 522.871 398.848C520.943 401.782 518.519 404.125 515.78 405.702H515.739Z" fill="white"/>
<path d="M527.978 350.702C528.932 349.225 530.028 347.905 531.24 346.773C532.425 345.593 533.726 344.615 535.109 343.861C534.163 345.348 533.066 346.669 531.847 347.79C530.662 348.97 529.361 349.948 527.978 350.702Z" fill="white"/>
<path d="M454.988 330.939C455.942 329.457 457.038 328.133 458.25 326.996C459.438 325.822 460.738 324.843 462.12 324.085C461.17 325.572 460.074 326.897 458.858 328.027C457.67 329.202 456.369 330.18 454.988 330.939Z" fill="white"/>
<path d="M502.256 293.036C503.21 291.554 504.306 290.23 505.518 289.093C506.706 287.919 508.006 286.94 509.388 286.182C508.438 287.669 507.342 288.994 506.126 290.124C504.938 291.299 503.637 292.277 502.256 293.036Z" fill="white"/>
<path d="M446.052 376.211C445.113 377.666 444.035 378.965 442.841 380.076V378.505C443.838 377.584 444.915 376.814 446.052 376.211Z" fill="white"/>
<path d="M478.176 268.841C479.13 267.359 480.226 266.035 481.438 264.898C482.626 263.724 483.926 262.745 485.308 261.987C483.38 264.921 480.956 267.264 478.216 268.841H478.176Z" fill="white"/>
<path d="M437.867 338.785C439.032 339.999 440.073 341.392 440.967 342.933C441.891 344.444 442.66 346.098 443.257 347.855C440.949 345.403 439.107 342.32 437.867 338.836V338.785Z" fill="white"/>
<path d="M454.663 279.933C456.967 282.386 458.806 285.469 460.042 288.952C458.876 287.749 457.837 286.359 456.953 284.816C456.03 283.319 455.26 281.678 454.663 279.933Z" fill="white"/>
<path d="M497.099 375.103C499.4 377.56 501.238 380.642 502.478 384.122C501.332 382.907 500.311 381.513 499.439 379.973C498.497 378.485 497.711 376.848 497.099 375.103Z" fill="white"/>
<path d="M541.065 412.478C542.23 413.692 543.272 415.085 544.165 416.627C545.089 418.137 545.858 419.791 546.455 421.548C545.283 420.344 544.24 418.95 543.355 417.4C542.429 415.891 541.66 414.237 541.065 412.478Z" fill="white"/>
<path d="M496.238 252.144C498.543 254.596 500.381 257.679 501.618 261.162C499.313 258.71 497.474 255.627 496.238 252.144Z" fill="white"/>
<path d="M488.347 324.677C489.516 325.885 490.558 327.279 491.447 328.826C492.376 330.332 493.145 331.987 493.736 333.747C491.429 331.295 489.587 328.213 488.347 324.729V324.677Z" fill="white"/>
<path d="M484.173 241.605C483.505 243.911 473.03 257.812 464.591 255.893C461.836 255.261 463.862 236.001 463.862 236.001L463.76 234.532L462.292 214.022L482.238 202.027L485.105 200.481C485.105 200.481 485.217 206.124 485.298 213.158C485.298 213.493 485.298 213.815 485.298 214.163C485.298 214.511 485.298 214.936 485.298 215.31C485.298 216.353 485.298 217.436 485.298 218.505C485.298 219.317 485.298 220.102 485.298 220.966V223.542C485.256 229.589 484.88 235.625 484.173 241.605Z" fill="#AD6359"/>
<path d="M485.298 213.158C483.144 218.497 480.101 223.174 476.382 226.865C472.663 230.556 468.356 233.172 463.76 234.532L462.292 214.022L482.238 202.027L485.105 200.481C485.105 200.481 485.217 206.124 485.298 213.158Z" fill="#263238"/>
<path d="M441.767 183.797C439.518 219.871 456.233 225.63 462.352 226.235C467.894 226.789 486.848 227.781 492.014 192.223C497.181 156.665 484.72 143.949 472.088 141.823C459.455 139.697 444.026 147.749 441.767 183.797Z" fill="#AD6359"/>
<path d="M446.549 176.131C447.197 176.014 447.84 175.851 448.474 175.642C449.17 175.594 449.834 175.249 450.358 174.663C450.494 174.437 450.568 174.161 450.568 173.877C450.568 173.593 450.494 173.316 450.358 173.091C450.039 172.695 449.643 172.414 449.21 172.279C448.777 172.143 448.323 172.156 447.896 172.318C446.988 172.481 446.159 173.064 445.566 173.954C445.44 174.168 445.366 174.424 445.353 174.691C445.34 174.957 445.388 175.223 445.493 175.455C445.598 175.687 445.754 175.874 445.941 175.995C446.129 176.115 446.34 176.162 446.549 176.131Z" fill="#263238"/>
<path d="M465.412 176.647C464.753 176.544 464.145 176.299 463.497 176.118C462.8 176.046 462.142 175.684 461.623 175.088C461.487 174.863 461.413 174.586 461.413 174.302C461.413 174.018 461.487 173.741 461.623 173.516C461.949 173.127 462.351 172.855 462.788 172.731C463.224 172.606 463.679 172.633 464.105 172.807C465.009 172.98 465.83 173.578 466.404 174.482C466.524 174.698 466.592 174.953 466.601 175.217C466.609 175.48 466.558 175.741 466.454 175.969C466.349 176.197 466.196 176.382 466.011 176.502C465.826 176.622 465.618 176.672 465.412 176.647Z" fill="#263238"/>
<path d="M460.975 185.742C460.975 185.639 461.127 185.858 461.116 185.961C460.995 188.422 461.177 191.257 462.91 192.145C462.96 192.145 462.91 192.3 462.91 192.287C460.762 191.811 460.549 188.036 460.975 185.742Z" fill="#263238"/>
<path d="M462.767 183.243C465.887 183.063 465.928 190.973 463.041 191.179C460.154 191.385 460.154 183.385 462.767 183.243Z" fill="#263238"/>
<path d="M463.993 183.655C464.55 184.093 465.087 184.944 465.745 184.944C466.404 184.944 467.072 184.196 467.569 183.398C467.569 183.32 467.67 183.398 467.68 183.488C467.68 185.008 467.244 186.58 465.968 186.812C464.692 187.044 463.942 185.691 463.638 184.158C463.587 183.887 463.78 183.526 463.993 183.655Z" fill="#263238"/>
<path d="M450.226 185.188C450.226 185.098 450.084 185.317 450.084 185.42C450.175 187.881 449.952 190.715 448.21 191.566C448.149 191.566 448.159 191.707 448.21 191.695C450.357 191.257 450.621 187.507 450.226 185.188Z" fill="#263238"/>
<path d="M448.474 182.65C445.353 182.406 445.202 190.38 448.089 190.587C450.976 190.793 451.087 182.857 448.474 182.65Z" fill="#263238"/>
<path d="M447.157 183.14C446.66 183.539 446.144 184.287 445.566 184.325C444.989 184.364 444.391 183.475 443.976 182.637C443.925 182.56 443.875 182.637 443.875 182.728C443.814 184.248 444.178 185.833 445.313 186.168C446.448 186.503 447.147 185.188 447.461 183.681C447.522 183.41 447.359 182.972 447.157 183.14Z" fill="#263238"/>
<path d="M461.116 205.222C460.68 205.828 460.244 206.652 459.545 206.768C458.828 206.797 458.114 206.634 457.448 206.292C457.435 206.287 457.421 206.288 457.408 206.293C457.395 206.299 457.383 206.309 457.375 206.322C457.366 206.336 457.361 206.353 457.36 206.37C457.358 206.387 457.361 206.405 457.367 206.42C457.663 206.883 458.052 207.237 458.492 207.443C458.932 207.649 459.408 207.701 459.87 207.593C460.263 207.443 460.611 207.144 460.868 206.737C461.125 206.33 461.278 205.833 461.308 205.312C461.328 205.171 461.176 205.132 461.116 205.222Z" fill="#263238"/>
<path d="M453.062 196.255C453.062 196.255 452.647 199.94 452.637 201.666C452.637 201.834 452.971 201.911 453.427 201.95C453.427 201.95 453.427 201.95 453.488 201.95C454.656 202.232 455.862 202.099 456.974 201.565C458.086 201.03 459.06 200.116 459.789 198.922C459.804 198.888 459.809 198.849 459.805 198.81C459.801 198.771 459.787 198.736 459.765 198.708C459.743 198.681 459.715 198.663 459.685 198.657C459.654 198.652 459.623 198.659 459.597 198.677C457.848 200.176 455.766 200.917 453.66 200.79C453.569 200.314 454.541 194.529 454.319 194.503C453.26 194.624 452.218 194.918 451.219 195.379C451.918 187.649 453.569 180.215 454.167 172.55C454.179 172.49 454.172 172.427 454.147 172.373C454.122 172.32 454.082 172.282 454.035 172.266C453.988 172.251 453.938 172.26 453.896 172.291C453.854 172.323 453.824 172.374 453.812 172.434C451.644 180.164 450.692 188.938 449.821 196.912C449.699 197.84 452.526 196.552 453.062 196.255Z" fill="#263238"/>
<path d="M453.721 201.563C454.539 202.95 455.624 204.046 456.872 204.745C457.557 205.098 458.311 205.171 459.03 204.952C460.61 204.449 460.661 202.62 460.387 201.087C460.234 200.253 460.007 199.445 459.708 198.677C458.006 200.428 455.908 201.44 453.721 201.563Z" fill="#263238"/>
<path d="M456.872 204.771C457.557 205.124 458.311 205.196 459.03 204.977C460.61 204.475 460.661 202.646 460.387 201.112C458.706 201.267 457.034 202.697 456.872 204.771Z" fill="#EB9481"/>
<path d="M490.758 195.817C488.945 194.687 487.394 192.976 486.257 190.853C485.121 188.729 484.437 186.267 484.275 183.707C479.337 180.927 475.073 176.519 471.926 170.939C472.108 171.687 473.455 177.046 474.215 179.752C456.284 175.384 450.794 157.85 450.794 157.85C444.949 165.206 443.773 169.922 442.922 172.266C442.922 172.266 442.841 158.275 448.535 148.934C455.504 137.494 478.926 134.531 489.674 149.566C501.274 165.812 490.758 195.817 490.758 195.817Z" fill="#263238"/>
<path d="M460.63 175.899C463.506 177.921 466.603 179.384 469.819 180.241C464.765 178.473 460.202 174.938 456.649 170.037C455.14 167.953 453.847 165.632 452.799 163.132C451.572 160.454 450.774 157.494 450.449 154.423C450.449 154.375 450.434 154.329 450.408 154.295C450.381 154.261 450.345 154.242 450.307 154.242C450.27 154.242 450.234 154.261 450.207 154.295C450.18 154.329 450.166 154.375 450.166 154.423C450.231 157.507 450.704 160.556 451.563 163.441C452.504 166.256 453.847 168.825 455.524 171.017C457.023 172.951 458.728 174.608 460.59 175.938" fill="#263238"/>
<path d="M487.344 194.542C487.344 194.542 493.483 183.192 497.474 185.974C501.466 188.757 496.938 205.158 492.227 207.438C491.638 207.783 490.999 207.973 490.351 207.996C489.702 208.02 489.057 207.876 488.453 207.574C487.849 207.272 487.3 206.818 486.838 206.239C486.376 205.66 486.01 204.968 485.764 204.204L487.344 194.542Z" fill="#AD6359"/>
<path d="M496.087 190.638C496.168 190.638 496.178 190.754 496.087 190.793C492.784 192.532 491.021 196.461 489.856 200.52C490.869 198.948 492.176 198.085 493.827 199.566C493.909 199.644 493.827 199.811 493.736 199.785C493.156 199.548 492.532 199.544 491.95 199.775C491.368 200.005 490.856 200.459 490.484 201.074C489.884 202.126 489.368 203.253 488.945 204.436C488.793 204.823 488.256 204.617 488.367 204.191V204.088C488.347 198.768 491.589 191.257 496.087 190.638Z" fill="#263238"/>
<path d="M488.327 206.613C488.327 207.123 488.445 207.621 488.668 208.045C488.891 208.469 489.207 208.799 489.577 208.994C489.948 209.189 490.355 209.24 490.748 209.141C491.141 209.041 491.502 208.796 491.785 208.435C492.069 208.075 492.262 207.616 492.34 207.116C492.418 206.616 492.378 206.098 492.225 205.627C492.071 205.157 491.812 204.754 491.478 204.471C491.145 204.188 490.753 204.037 490.353 204.037C489.819 204.053 489.311 204.33 488.934 204.81C488.557 205.289 488.34 205.935 488.327 206.613Z" fill="white"/>
<path d="M454.643 248.961C454.643 248.961 448.849 269.91 459.333 271.392C469.818 272.873 497.201 247.119 497.201 247.119C497.201 247.119 489.603 231.479 477.467 233.153C467.387 234.532 454.643 248.961 454.643 248.961Z" fill="#AD6359"/>
<path d="M504.191 273.492C504.191 299.361 492.501 376.933 481.276 387.381C458.817 408.291 406.149 406.848 391.622 407.17C385.351 407.299 377.115 354.206 381.785 348.1C386.455 341.993 450.672 339.725 453.914 336.595C456.193 334.417 474.306 296.656 484.791 272.384C498.933 239.569 504.191 260.453 504.191 273.492Z" fill="#AD6359"/>
<path d="M392.929 345.265C392.929 345.265 373.975 342.598 361.524 341.606C354.565 341.04 342.58 341.439 337.323 343.99C329.462 347.855 298.513 370.233 302.616 379.896C306.334 388.631 315.785 378.968 315.785 378.968C315.785 378.968 304.642 388.296 310.457 395.536C316.272 402.777 327.679 388.708 327.679 388.708C327.679 388.708 315.33 397.572 322.087 404.555C327.952 410.597 342.418 396.142 342.418 396.142C342.418 396.142 328.661 403.653 334.192 410.597C340.271 418.327 364.128 400.059 364.128 400.059C379.638 406.629 389.646 407.905 401.519 406.951C403.667 406.784 392.929 345.265 392.929 345.265Z" fill="#AD6359"/>
<path d="M324.194 391.89L327 388.747C328.786 386.652 330.667 384.69 332.632 382.872C334.577 381.133 336.573 379.522 338.609 377.989C340.645 376.456 343.056 375 345.174 373.3C345.19 373.284 345.208 373.273 345.228 373.267C345.247 373.261 345.268 373.261 345.287 373.266C345.307 373.271 345.326 373.281 345.342 373.296C345.358 373.311 345.372 373.33 345.382 373.352C345.392 373.374 345.399 373.399 345.401 373.424C345.403 373.45 345.401 373.475 345.394 373.5C345.388 373.524 345.378 373.546 345.364 373.565C345.351 373.584 345.334 373.599 345.315 373.609C343.212 375.258 341.182 377.056 339.237 378.994C337.282 380.811 335.337 382.666 333.392 384.508C331.447 386.351 329.522 387.948 327.587 389.662C326.574 390.525 325.683 391.452 324.751 392.367C323.905 393.322 322.997 394.184 322.036 394.944C321.945 395.008 321.853 394.841 321.914 394.738C322.594 393.69 323.358 392.736 324.194 391.89Z" fill="#263238"/>
<path d="M313.496 380.965C314.782 378.839 321.864 371.496 323.758 369.757C327.42 366.371 331.34 363.462 335.459 361.073C335.488 361.063 335.52 361.065 335.549 361.079C335.577 361.094 335.601 361.12 335.617 361.153C335.633 361.187 335.64 361.226 335.637 361.265C335.634 361.304 335.621 361.341 335.6 361.37C331.943 364.771 328.246 368.095 324.548 371.431C322.735 373.055 314.711 380.772 313.79 381.442C313.567 381.609 313.364 381.197 313.496 380.965Z" fill="#263238"/>
<path d="M334 402.545C337.082 398.837 340.355 395.394 343.796 392.238C347.533 389.423 351.431 386.968 355.456 384.895C355.608 384.83 355.73 385.088 355.598 385.191C351.87 388.013 348.122 390.731 344.455 393.771C342.692 395.253 335.945 401.682 334.162 402.906C334.081 402.97 333.919 402.674 334 402.545Z" fill="#263238"/>
<path d="M405.713 411.074L388.39 341.065C388.39 341.065 451.421 335.912 453.467 334.623C455.514 333.335 477.983 282.793 486.898 263.159C495.813 243.525 509.549 251.564 504.413 295.922C499.257 340.485 493.584 375.116 485.733 385.423C476.17 397.894 441.321 410.778 405.713 411.074Z" fill="#C3E1FF"/>
<path d="M458.523 366.613C458.371 364.712 458.409 362.795 458.634 360.906C458.819 359.005 459.197 357.143 459.758 355.366C459.911 357.267 459.87 359.185 459.637 361.073C459.45 362.972 459.076 364.833 458.523 366.613Z" fill="white"/>
<path d="M423.695 406.681C423.539 404.776 423.576 402.853 423.806 400.96C423.995 399.062 424.369 397.201 424.92 395.421C425.076 397.325 425.039 399.248 424.809 401.141C424.622 403.04 424.248 404.901 423.695 406.681Z" fill="white"/>
<path d="M477.629 305.069C477.481 303.167 477.522 301.25 477.75 299.362C477.927 297.46 478.302 295.597 478.865 293.822C479.132 297.642 478.71 301.489 477.629 305.069Z" fill="white"/>
<path d="M487.719 359.566C484.713 359.903 481.686 359.37 478.865 358.007C480.363 357.809 481.875 357.856 483.363 358.149C484.856 358.388 486.319 358.864 487.719 359.566Z" fill="white"/>
<path d="M427.199 361.769C425.701 361.967 424.19 361.92 422.701 361.627C421.208 361.39 419.745 360.914 418.345 360.21C419.843 360.012 421.355 360.059 422.843 360.352C424.336 360.592 425.799 361.068 427.199 361.769Z" fill="white"/>
<path d="M469.515 394.467C470.47 392.99 471.565 391.67 472.777 390.538C473.963 389.358 475.263 388.38 476.647 387.626C474.715 390.552 472.292 392.889 469.556 394.467H469.515Z" fill="white"/>
<path d="M396.87 352.802C397.824 351.325 398.92 350.005 400.132 348.873C401.317 347.693 402.618 346.715 404.001 345.961C403.055 347.448 401.958 348.769 400.739 349.89C399.554 351.07 398.253 352.048 396.87 352.802Z" fill="white"/>
<path d="M462.119 324.085C461.17 325.572 460.073 326.897 458.857 328.027C457.938 328.915 456.962 329.704 455.939 330.385C456.253 329.766 456.598 329.096 456.952 328.349C457.368 327.885 457.803 327.435 458.239 327.061C459.427 325.863 460.731 324.863 462.119 324.085Z" fill="white"/>
<path d="M504.991 289.673C504.991 290.214 504.91 290.755 504.859 291.309C504.041 292.013 503.169 292.608 502.256 293.087C503.064 291.823 503.982 290.677 504.991 289.673Z" fill="white"/>
<path d="M438.921 383.065C439.875 381.584 440.971 380.26 442.183 379.123C443.371 377.948 444.671 376.97 446.053 376.211C445.104 377.699 444.007 379.024 442.791 380.154C441.603 381.328 440.302 382.307 438.921 383.065Z" fill="white"/>
<path d="M437.867 338.785C439.032 339.999 440.073 341.392 440.967 342.933C441.891 344.444 442.66 346.098 443.257 347.855C440.949 345.403 439.107 342.32 437.867 338.836V338.785Z" fill="white"/>
<path d="M501.618 261.201C500.454 259.995 499.416 258.605 498.528 257.065C497.77 255.816 497.111 254.474 496.562 253.058C496.748 253.045 496.934 253.045 497.12 253.058C497.922 254.042 498.661 255.106 499.328 256.241C500.256 257.762 501.025 259.429 501.618 261.201Z" fill="white"/>
<path d="M488.347 324.677C489.516 325.885 490.558 327.279 491.447 328.826C492.376 330.332 493.145 331.987 493.736 333.747C491.429 331.295 489.587 328.213 488.347 324.729V324.677Z" fill="white"/>
<path d="M473.202 292.752C471.176 296.617 469.241 300.714 467.347 304.747L467.185 305.082C467.276 304.773 467.377 304.463 467.468 304.167C468.086 302.157 468.633 300.109 469.302 298.138C469.302 298.022 469.211 297.919 469.17 298.035C468.481 299.98 467.721 301.9 467.073 303.845C466.637 305.133 466.242 306.512 465.868 307.865C464.459 310.854 463.051 313.843 461.663 316.883C459.799 320.928 457.946 325 456.071 329.045C455.605 330.037 455.16 331.029 454.684 332.021C454.35 332.9 453.767 333.586 453.053 333.941C452.205 334.196 451.34 334.343 450.469 334.379C449.547 334.495 448.626 334.636 447.704 334.778C443.51 335.435 439.346 336.311 435.152 337.007C435.051 337.007 435.051 337.226 435.152 337.213C439.002 336.839 442.861 336.659 446.711 336.26C448.615 336.066 450.52 335.899 452.404 335.59C453.133 335.541 453.836 335.228 454.43 334.688C454.952 334.085 455.381 333.364 455.697 332.562C459.512 324.162 463.328 315.758 467.144 307.349C469.302 302.582 471.49 297.841 473.476 292.958C473.497 292.912 473.503 292.857 473.493 292.805C473.482 292.753 473.456 292.709 473.42 292.681C473.384 292.654 473.34 292.646 473.299 292.66C473.259 292.673 473.223 292.706 473.202 292.752Z" fill="#263238"/>
<path d="M504.505 311.446C504.31 313.052 504.009 314.634 503.603 316.174C503.299 317.553 503.006 318.931 502.682 320.297C502.357 321.663 501.881 323.376 501.466 324.909C502.317 318.09 502.992 311.219 503.492 304.296C503.492 304.09 503.229 304.051 503.198 304.296C502.185 313.92 500.797 323.505 499.207 332.987C497.616 342.469 495.692 351.939 493.514 361.254C492.44 365.84 491.305 370.414 490.049 374.923C489.067 378.873 487.574 382.587 485.632 385.912C483.335 389.232 480.459 391.822 477.234 393.475C473.876 395.44 470.433 397.16 466.921 398.628C458.938 401.952 450.712 404.065 442.547 406.552C442.456 406.552 442.476 406.771 442.547 406.758C450.04 405.426 457.463 403.516 464.773 401.038C468.476 399.783 472.114 398.234 475.664 396.4C478.916 394.673 482.269 392.805 484.893 389.739C487.294 386.731 489.147 383.089 490.322 379.071C491.69 374.858 492.764 370.478 493.828 366.188C496.158 356.68 498.103 347.095 499.693 337.342C500.146 334.516 500.568 331.686 500.959 328.852C501.87 326.157 502.609 323.374 503.168 320.529C503.472 319.047 503.765 317.566 503.998 316.058C504.231 314.551 504.302 312.979 504.637 311.523C504.687 311.33 504.515 311.292 504.505 311.446Z" fill="#263238"/>
<path d="M416.674 405.431C413.818 395.369 410.799 385.384 408.297 375.181C405.702 365.113 403.528 354.878 401.783 344.518C401.783 344.479 401.794 344.441 401.813 344.41C401.832 344.379 401.858 344.357 401.888 344.347C401.917 344.336 401.949 344.339 401.978 344.353C402.006 344.368 402.03 344.394 402.046 344.428C405.014 354.297 407.425 364.487 409.917 374.562C412.41 384.637 414.618 395.008 417.14 405.16C417.232 405.547 416.796 405.817 416.674 405.431Z" fill="#263238"/>
<path d="M406.057 339.416C404.549 339.313 403.037 339.313 401.529 339.416C400.02 339.416 398.49 339.545 397.001 339.622C393.962 339.79 390.973 340.073 387.964 340.395C387.905 340.398 387.848 340.418 387.796 340.453C387.744 340.489 387.699 340.539 387.665 340.6C387.631 340.661 387.608 340.731 387.598 340.805C387.589 340.879 387.593 340.955 387.61 341.027C387.976 342.446 388.494 343.794 389.15 345.033C389.2 345.098 389.302 345.033 389.302 344.969C389.169 343.714 388.903 342.487 388.511 341.323C391.388 341.078 394.265 340.859 397.143 340.576L401.661 340.163C403.13 340.009 404.629 339.957 406.088 339.661C406.209 339.661 406.159 339.416 406.057 339.416Z" fill="#263238"/>
<path d="M338.052 324.42C341.811 326.79 358.982 327.692 363.986 335.525C367.319 340.679 367.025 346 368.93 361.55C370.622 375.052 361.838 371.857 359.296 364.925C355.325 354.065 351.911 342.16 351.911 342.16C348.98 341.975 346.043 342.031 343.117 342.328L338.052 324.42Z" fill="#F7A9A0"/>
<path d="M350.391 375.49C356.337 370.697 375.352 401.257 365.85 409.309C356.347 417.361 343.654 380.901 350.391 375.49Z" fill="#F7A9A0"/>
<path d="M340.757 381.932C346.693 377.139 365.718 407.698 356.216 415.751C346.714 423.803 334 387.407 340.757 381.932Z" fill="#F7A9A0"/>
<path d="M333.929 383.22C339.855 379.909 353.805 411.022 344.282 416.717C334.76 422.411 327.223 386.917 333.929 383.22Z" fill="#F7A9A0"/>
<path d="M326.908 382.318C333.138 381.378 339.196 415.261 329.096 417.103C318.996 418.946 319.888 383.387 326.908 382.318Z" fill="#F7A9A0"/>
<path d="M349.033 386.041C350.123 387.571 351.113 389.213 351.991 390.95C353.004 392.766 353.946 394.609 354.797 396.541C355.627 398.383 356.371 400.284 357.026 402.236C357.694 404.31 358.16 406.526 358.88 408.574C358.889 408.597 358.894 408.622 358.895 408.647C358.896 408.672 358.893 408.697 358.885 408.721C358.878 408.744 358.867 408.766 358.853 408.783C358.839 408.801 358.822 408.815 358.804 408.824C358.785 408.833 358.766 408.837 358.746 408.836C358.726 408.835 358.707 408.828 358.689 408.817C358.671 408.805 358.656 408.789 358.643 408.77C358.631 408.75 358.621 408.728 358.616 408.703C357.924 406.708 357.118 404.779 356.205 402.932C355.364 401.063 354.605 399.144 353.784 397.263C352.963 395.382 352.224 393.578 351.403 391.762C350.583 389.945 349.6 388.141 348.84 386.222C348.828 386.189 348.825 386.152 348.832 386.117C348.838 386.082 348.855 386.051 348.878 386.03C348.9 386.008 348.929 385.998 348.957 386C348.985 386.002 349.012 386.017 349.033 386.041Z" fill="#263238"/>
<path d="M339.136 385.874C339.743 388.167 341.79 396.928 342.479 399.195C343.167 401.463 343.927 403.73 344.707 405.972C345.487 408.214 346.156 410.649 347.169 412.852C347.178 412.891 347.175 412.933 347.163 412.971C347.15 413.008 347.128 413.039 347.1 413.059C347.072 413.078 347.039 413.085 347.007 413.078C346.976 413.071 346.947 413.05 346.926 413.019C345.974 410.829 344.9 408.794 343.988 406.578C343.076 404.362 342.357 402.081 341.658 399.762C340.508 395.244 339.577 390.64 338.872 385.977C338.821 385.694 339.065 385.681 339.136 385.874Z" fill="#263238"/>
<path d="M331.67 388.051C332.146 391.324 332.46 394.635 332.946 397.907C333.179 399.517 333.432 401.128 333.665 402.751C333.777 403.524 333.878 404.31 333.99 405.096C334.049 406.004 334.181 406.902 334.385 407.776C334.456 407.995 334.131 408.098 334.111 407.776C333.925 406.796 333.681 405.836 333.382 404.903C333.209 404.143 333.037 403.395 332.885 402.622C332.571 401.025 332.318 399.427 332.115 397.791C331.66 394.583 331.396 391.336 331.325 388.077C331.325 387.871 331.639 387.806 331.67 388.051Z" fill="#263238"/>
<path d="M424.373 171.403C426.882 166.663 428.239 161.089 428.274 155.376C428.274 135.072 410.738 118.62 389.13 118.62C367.521 118.62 350.016 135.072 350.016 155.376C350.016 175.68 367.521 192.133 389.13 192.133C399.615 192.133 409.107 188.268 416.127 181.968L429.611 186.322L424.373 171.403Z" fill="#C3E1FF"/>
<path d="M375.059 155.376C375.059 156.395 374.821 157.392 374.376 158.239C373.931 159.087 373.298 159.747 372.557 160.137C371.817 160.527 371.002 160.629 370.216 160.431C369.43 160.232 368.708 159.741 368.141 159.02C367.575 158.299 367.189 157.381 367.032 156.382C366.876 155.382 366.956 154.346 367.263 153.404C367.57 152.462 368.089 151.658 368.755 151.091C369.422 150.525 370.205 150.223 371.007 150.223C372.081 150.223 373.112 150.766 373.872 151.732C374.632 152.699 375.059 154.009 375.059 155.376Z" fill="#263238"/>
<path d="M389.14 160.542C391.384 160.542 393.203 158.229 393.203 155.376C393.203 152.523 391.384 150.21 389.14 150.21C386.897 150.21 385.078 152.523 385.078 155.376C385.078 158.229 386.897 160.542 389.14 160.542Z" fill="#263238"/>
<path d="M411.326 155.376C411.326 156.395 411.088 157.392 410.643 158.239C410.197 159.087 409.565 159.747 408.824 160.137C408.084 160.527 407.269 160.629 406.483 160.431C405.697 160.232 404.975 159.741 404.408 159.02C403.841 158.299 403.455 157.381 403.299 156.382C403.143 155.382 403.223 154.346 403.53 153.404C403.836 152.462 404.356 151.658 405.022 151.091C405.688 150.525 406.472 150.223 407.273 150.223C408.348 150.223 409.379 150.766 410.139 151.732C410.899 152.699 411.326 154.009 411.326 155.376Z" fill="#263238"/>
<path d="M283.114 61.1337C280.855 85.1613 268.709 89.4773 266.662 95.919C265.63 99.9514 264.777 104.055 264.11 108.21H244.355C243.7 104.052 242.851 99.9483 241.813 95.919C239.786 89.4773 227.63 85.0454 225.503 60.992C224.074 45.1969 233.465 20.2803 254.364 20.3447C275.263 20.4091 284.583 45.3515 283.114 61.1337Z" fill="#C3E1FF"/>
<path d="M244.088 69.7559L243.092 69.9891L248.878 109.965L249.874 109.732L244.088 69.7559Z" fill="white"/>
<path d="M264.508 69.8014L258.58 109.743L259.575 109.982L265.504 70.0403L264.508 69.8014Z" fill="white"/>
<path d="M254.294 83.1902C252.744 83.1902 251.184 81.6184 249.908 78.7712C249.847 78.6423 249.786 78.5135 249.736 78.3847C249.532 78.7175 249.277 78.9934 248.986 79.1951C248.695 79.3968 248.374 79.5201 248.044 79.5571C245.086 79.5571 243.911 71.827 243.87 71.4534L244.366 71.3374C244.366 71.4147 245.501 78.9 248.044 78.9129C248.334 78.8614 248.612 78.7327 248.859 78.5351C249.107 78.3375 249.32 78.0755 249.482 77.7663C248.236 74.4939 247.537 70.2166 248.469 68.2712C248.602 67.9589 248.8 67.6989 249.041 67.5195C249.283 67.3401 249.558 67.248 249.837 67.2534C250.168 67.2398 250.496 67.3434 250.784 67.5526C251.072 67.7619 251.309 68.0686 251.468 68.4386C252.359 70.4098 251.701 74.481 250.526 77.0448C250.401 77.3195 250.266 77.5861 250.121 77.8436C250.202 78.0497 250.293 78.2558 250.384 78.4491C251.073 79.9822 252.501 82.546 254.335 82.546C255.561 82.546 256.786 81.2577 257.799 79.1061C257.888 78.9227 257.969 78.7335 258.043 78.5393C257.779 78.1404 257.549 77.7088 257.354 77.2509C256.128 74.5454 255.885 70.5387 256.817 68.5031C256.965 68.1225 257.193 67.801 257.475 67.5738C257.757 67.3466 258.083 67.2224 258.417 67.2147C258.676 67.2154 258.929 67.3073 259.149 67.4801C259.369 67.653 259.547 67.9001 259.663 68.1939C260.535 70.1264 260.048 74.7258 258.65 78.346C258.916 78.6841 259.232 78.9515 259.58 79.1329C259.928 79.3143 260.301 79.4059 260.676 79.4025C262.48 79.4025 264.09 73.927 264.556 71.8141L265.043 71.9816C264.972 72.3166 263.229 80.0466 260.676 80.0466C259.859 80.0442 259.071 79.6537 258.468 78.9515L258.286 79.3638C257.415 81.1417 256.098 83.1902 254.294 83.1902ZM258.346 67.9233C258.102 67.9289 257.863 68.021 257.657 68.1894C257.452 68.3578 257.287 68.5958 257.182 68.8767C256.351 70.7061 256.604 74.4939 257.718 76.9804C257.864 77.3091 258.034 77.6197 258.225 77.908C259.461 74.5325 259.927 70.2939 259.157 68.5804C259.084 68.3848 258.97 68.2193 258.826 68.1031C258.683 67.9868 258.517 67.9245 258.346 67.9233ZM249.756 67.9233C249.565 67.9156 249.376 67.9768 249.211 68.0999C249.046 68.223 248.912 68.403 248.824 68.619C248.125 70.165 248.581 73.927 249.786 77.1994L250.009 76.7485C251.083 74.3908 251.731 70.5387 250.951 68.7865C250.837 68.5136 250.663 68.2876 250.452 68.1349C250.24 67.9821 249.999 67.9087 249.756 67.9233Z" fill="white"/>
<path d="M266.415 107.209L242.052 107.133L242.04 113.188L266.404 113.264L266.415 107.209Z" fill="#455A64"/>
<path d="M266.391 114.243L242.028 114.167L242.016 120.222L266.38 120.298L266.391 114.243Z" fill="#455A64"/>
<path d="M266.405 121.221L242.042 121.151L242.031 127.206L266.394 127.276L266.405 121.221Z" fill="#455A64"/>
<path d="M255.307 0.581512C255.943 3.87629 255.901 7.32371 255.185 10.5919C254.55 7.29711 254.592 3.84983 255.307 0.581512Z" fill="#263238"/>
<path d="M233.212 7.46124C234.15 8.66107 234.945 10.0282 235.573 11.5195C236.239 12.9852 236.737 14.5643 237.052 16.2091C236.127 15.0146 235.342 13.6564 234.722 12.1766C234.042 10.7061 233.533 9.1177 233.212 7.46124Z" fill="#263238"/>
<path d="M216.791 27.4564C219.356 28.4016 221.684 30.1772 223.548 32.6098C222.263 32.1595 221.035 31.4784 219.901 30.5871C218.751 29.739 217.704 28.6846 216.791 27.4564Z" fill="#263238"/>
<path d="M210.409 55.2073C212.999 54.3994 215.71 54.4526 218.28 55.3619C215.689 56.1698 212.979 56.1166 210.409 55.2073Z" fill="#263238"/>
<path d="M215.819 83.3061C216.762 82.1137 217.837 81.1025 219.01 80.3043C220.16 79.4538 221.403 78.8243 222.697 78.4362C220.767 80.776 218.4 82.452 215.819 83.3061Z" fill="#263238"/>
<path d="M291.877 85.4448C289.317 84.4863 286.991 82.7125 285.12 80.2914C287.685 81.2365 290.013 83.0122 291.877 85.4448Z" fill="#263238"/>
<path d="M292.85 29.595C291.903 30.7794 290.829 31.7859 289.659 32.584C288.508 33.4364 287.266 34.0701 285.971 34.465C286.917 33.2863 287.992 32.2881 289.162 31.5018C290.313 30.6454 291.555 30.0033 292.85 29.595Z" fill="#263238"/>
<path d="M277.128 8.69806C276.385 11.9602 274.988 14.9212 273.076 17.2913C273.43 15.6611 273.965 14.1037 274.666 12.6662C275.335 11.2024 276.164 9.86645 277.128 8.69806Z" fill="#263238"/>
</svg>
