<svg width="38" height="39" viewBox="0 0 38 39" fill="none" xmlns="http://www.w3.org/2000/svg">
<mask id="mask0_4_43036" style="mask-type:alpha" maskUnits="userSpaceOnUse" x="0" y="0" width="38" height="39">
<rect y="0.5" width="38" height="38" fill="#D9D9D9"/>
</mask>
<g mask="url(#mask0_4_43036)">
<path d="M34.8331 27.4165C34.3845 27.4165 34.0084 27.2648 33.705 26.9613C33.4015 26.6578 33.2497 26.2818 33.2497 25.8332V16.4915L20.5435 23.4186C20.306 23.5506 20.0619 23.6495 19.8112 23.7155C19.5605 23.7815 19.29 23.8144 18.9997 23.8144C18.7095 23.8144 18.439 23.7815 18.1883 23.7155C17.9376 23.6495 17.6935 23.5506 17.456 23.4186L4.11641 16.1353C3.85252 16.0033 3.648 15.812 3.50286 15.5613C3.35773 15.3106 3.28516 15.0401 3.28516 14.7499C3.28516 14.4596 3.35773 14.1891 3.50286 13.9384C3.648 13.6877 3.85252 13.4964 4.11641 13.3644L17.4956 6.08111C17.7331 5.94916 17.9772 5.8502 18.2279 5.78423C18.4786 5.71826 18.7359 5.68527 18.9997 5.68527C19.2636 5.68527 19.5209 5.71826 19.7716 5.78423C20.0223 5.8502 20.2664 5.94916 20.5039 6.08111L35.5852 14.3144C35.849 14.4464 36.0536 14.6377 36.1987 14.8884C36.3438 15.1391 36.4164 15.4096 36.4164 15.6999V25.8332C36.4164 26.2818 36.2647 26.6578 35.9612 26.9613C35.6577 27.2648 35.2817 27.4165 34.8331 27.4165ZM18.9997 33.3144C18.7359 33.3144 18.4786 33.2815 18.2279 33.2155C17.9772 33.1495 17.7331 33.0506 17.4956 32.9186L9.57891 28.6436C9.05113 28.3533 8.6421 27.9641 8.35182 27.4759C8.06155 26.9877 7.91641 26.4401 7.91641 25.8332V19.8165L16.9018 24.6853C17.2449 24.87 17.5879 25.0349 17.931 25.1801C18.274 25.3252 18.6303 25.3978 18.9997 25.3978C19.3692 25.3978 19.732 25.3186 20.0883 25.1603C20.4445 25.0019 20.7942 24.8304 21.1372 24.6457L30.0831 19.8165V25.8332C30.0831 26.4401 29.9379 26.9877 29.6477 27.4759C29.3574 27.9641 28.9484 28.3533 28.4206 28.6436L20.5039 32.9186C20.2664 33.0506 20.0223 33.1495 19.7716 33.2155C19.5209 33.2815 19.2636 33.3144 18.9997 33.3144Z" fill="#054A91"/>
</g>
</svg>
