<svg width="48" height="48" viewBox="0 0 48 48" fill="none" xmlns="http://www.w3.org/2000/svg">
<path d="M20.1 5.06007L8.06004 12.9201C4.20004 15.4401 4.20004 21.0801 8.06004 23.6001L20.1 31.4601C22.26 32.8801 25.82 32.8801 27.98 31.4601L39.96 23.6001C43.8 21.0801 43.8 15.4601 39.96 12.9401L27.98 5.08007C25.82 3.64007 22.26 3.64007 20.1 5.06007Z" stroke="white" stroke-width="3" stroke-linecap="round" stroke-linejoin="round"/>
<path d="M11.2602 26.1599L11.2402 35.5399C11.2402 38.0799 13.2002 40.7999 15.6002 41.5999L21.9802 43.7199C23.0802 44.0799 24.9002 44.0799 26.0202 43.7199L32.4002 41.5999C34.8002 40.7999 36.7602 38.0799 36.7602 35.5399V26.2599" stroke="white" stroke-width="3" stroke-linecap="round" stroke-linejoin="round"/>
<path d="M42.7998 30V18" stroke="white" stroke-width="3" stroke-linecap="round" stroke-linejoin="round"/>
</svg>
