<svg width="17" height="16" viewBox="0 0 17 16" fill="none" xmlns="http://www.w3.org/2000/svg">
<path d="M13.8879 8.33341C13.8879 7.41341 14.6345 6.66675 15.5545 6.66675V6.00008C15.5545 3.33341 14.8879 2.66675 12.2212 2.66675H5.55452C2.88786 2.66675 2.22119 3.33341 2.22119 6.00008V6.33341C3.14119 6.33341 3.88786 7.08008 3.88786 8.00008C3.88786 8.92008 3.14119 9.66675 2.22119 9.66675V10.0001C2.22119 12.6667 2.88786 13.3334 5.55452 13.3334H12.2212C14.8879 13.3334 15.5545 12.6667 15.5545 10.0001C14.6345 10.0001 13.8879 9.25341 13.8879 8.33341Z" stroke="white" stroke-width="1.5" stroke-linecap="round" stroke-linejoin="round"/>
<path d="M6.8877 9.83325L10.8877 5.83325" stroke="white" stroke-width="1.5" stroke-linecap="round" stroke-linejoin="round"/>
<path d="M10.8839 9.83333H10.8899" stroke="white" stroke-width="2" stroke-linecap="round" stroke-linejoin="round"/>
<path d="M6.88387 6.16659H6.88986" stroke="white" stroke-width="2" stroke-linecap="round" stroke-linejoin="round"/>
</svg>
