<svg width="16" height="16" viewBox="0 0 16 16" fill="none" xmlns="http://www.w3.org/2000/svg">
<path d="M12.9997 8.33329C12.9997 7.41329 13.7463 6.66663 14.6663 6.66663V5.99996C14.6663 3.33329 13.9997 2.66663 11.333 2.66663H4.66634C1.99967 2.66663 1.33301 3.33329 1.33301 5.99996V6.33329C2.25301 6.33329 2.99967 7.07996 2.99967 7.99996C2.99967 8.91996 2.25301 9.66663 1.33301 9.66663V9.99996C1.33301 12.6666 1.99967 13.3333 4.66634 13.3333H11.333C13.9997 13.3333 14.6663 12.6666 14.6663 9.99996C13.7463 9.99996 12.9997 9.25329 12.9997 8.33329Z" stroke="white" stroke-width="1.5" stroke-linecap="round" stroke-linejoin="round"/>
<path d="M6 9.83337L10 5.83337" stroke="white" stroke-width="1.5" stroke-linecap="round" stroke-linejoin="round"/>
<path d="M9.99666 9.83333H10.0027" stroke="white" stroke-width="2" stroke-linecap="round" stroke-linejoin="round"/>
<path d="M5.99666 6.16671H6.00265" stroke="white" stroke-width="2" stroke-linecap="round" stroke-linejoin="round"/>
</svg>
