<svg width="17" height="16" viewBox="0 0 17 16" fill="none" xmlns="http://www.w3.org/2000/svg">
<path d="M13.05 8.33341C13.05 7.41341 13.7966 6.66675 14.7166 6.66675V6.00008C14.7166 3.33341 14.05 2.66675 11.3833 2.66675H4.71663C2.04997 2.66675 1.3833 3.33341 1.3833 6.00008V6.33341C2.3033 6.33341 3.04997 7.08008 3.04997 8.00008C3.04997 8.92008 2.3033 9.66675 1.3833 9.66675V10.0001C1.3833 12.6667 2.04997 13.3334 4.71663 13.3334H11.3833C14.05 13.3334 14.7166 12.6667 14.7166 10.0001C13.7966 10.0001 13.05 9.25341 13.05 8.33341Z" stroke="white" stroke-width="1.5" stroke-linecap="round" stroke-linejoin="round"/>
<path d="M6.0498 9.83325L10.0498 5.83325" stroke="white" stroke-width="1.5" stroke-linecap="round" stroke-linejoin="round"/>
<path d="M10.046 9.83333H10.052" stroke="white" stroke-width="2" stroke-linecap="round" stroke-linejoin="round"/>
<path d="M6.04598 6.16659H6.05197" stroke="white" stroke-width="2" stroke-linecap="round" stroke-linejoin="round"/>
</svg>
