<svg width="619" height="320" viewBox="0 0 619 320" fill="none" xmlns="http://www.w3.org/2000/svg">
<path d="M593.863 88.0812C596.973 99.6874 592.711 112.856 581.953 126.834C571.207 140.798 554.093 155.41 531.872 169.803C487.438 198.582 422.779 226.361 348.429 246.284C274.079 266.206 204.193 274.478 151.322 271.771C124.881 270.417 102.755 266.319 86.4666 259.6C70.1614 252.873 59.8856 243.6 56.7758 231.993C53.6659 220.387 57.9282 207.218 68.6857 193.24C79.4317 179.277 96.5454 164.665 118.767 150.272C163.2 121.492 227.859 93.7132 302.21 73.7911C376.56 53.869 446.446 45.5968 499.316 48.3041C525.757 49.658 547.884 53.7554 564.172 60.475C580.477 67.2016 590.753 76.4751 593.863 88.0812Z" stroke="#B0D5FC" stroke-width="2"/>
<path d="M561.422 88.0065C564.532 99.6127 560.269 112.782 549.512 126.76C538.766 140.723 521.652 155.335 499.43 169.728C454.997 198.508 390.338 226.287 315.988 246.209C241.637 266.131 171.751 274.403 118.881 271.696C92.4401 270.342 70.3133 266.245 54.0252 259.525C37.72 252.798 27.4442 243.525 24.3343 231.919C21.2245 220.313 25.4868 207.144 36.2443 193.165C46.9903 179.202 64.104 164.59 86.3256 150.197C130.759 121.418 195.418 93.6385 269.768 73.7164C344.119 53.7942 414.005 45.5221 466.875 48.2294C493.316 49.5833 515.443 53.6807 531.731 60.4003C548.036 67.1269 558.312 76.4004 561.422 88.0065Z" stroke="#B0D5FC" stroke-width="2"/>
<circle cx="538" cy="52.5356" r="4" fill="#02B2E8"/>
<circle cx="114" cy="132.536" r="4" fill="#02B2E8"/>
<circle cx="525" cy="170.536" r="9" fill="#F17300"/>
</svg>
