<svg width="1496" height="1005" viewBox="0 0 1496 1005" fill="none" xmlns="http://www.w3.org/2000/svg">
<g opacity="0.4">
<path d="M1444.98 872.934L1386.11 974.897" stroke="#B0D5FC" stroke-width="4" stroke-linecap="round"/>
<path d="M1466.53 953.35L1364.57 894.481" stroke="#B0D5FC" stroke-width="4" stroke-linecap="round"/>
<path d="M1430.78 980.776L1400.31 867.051" stroke="#B0D5FC" stroke-width="4" stroke-linecap="round"/>
<path d="M1358.69 939.151L1472.41 908.679" stroke="#B0D5FC" stroke-width="4" stroke-linecap="round"/>
</g>
<g opacity="0.2">
<path d="M186.399 50.0684L86.6954 222.761" stroke="#B0D5FC" stroke-width="4" stroke-linecap="round"/>
<path d="M222.897 186.267L50.2049 86.5625" stroke="#B0D5FC" stroke-width="4" stroke-linecap="round"/>
<path d="M162.354 232.721L110.744 40.1072" stroke="#B0D5FC" stroke-width="4" stroke-linecap="round"/>
<path d="M40.2432 162.22L232.857 110.609" stroke="#B0D5FC" stroke-width="4" stroke-linecap="round"/>
</g>
<g opacity="0.1">
<path d="M368.995 326.344L336.308 382.959" stroke="#B0D5FC" stroke-width="2" stroke-linecap="round"/>
<path d="M380.96 370.995L324.344 338.308" stroke="#B0D5FC" stroke-width="2" stroke-linecap="round"/>
<path d="M361.112 386.224L344.192 323.077" stroke="#B0D5FC" stroke-width="2" stroke-linecap="round"/>
<path d="M321.079 363.111L384.226 346.191" stroke="#B0D5FC" stroke-width="2" stroke-linecap="round"/>
</g>
<g opacity="0.1">
<path d="M246.995 885.344L214.308 941.959" stroke="#B0D5FC" stroke-width="2" stroke-linecap="round"/>
<path d="M258.96 929.995L202.344 897.308" stroke="#B0D5FC" stroke-width="2" stroke-linecap="round"/>
<path d="M239.112 945.224L222.192 882.077" stroke="#B0D5FC" stroke-width="2" stroke-linecap="round"/>
<path d="M199.079 922.111L262.226 905.191" stroke="#B0D5FC" stroke-width="2" stroke-linecap="round"/>
</g>
<g opacity="0.1">
<path d="M1381 396.344L1348.31 452.959" stroke="#B0D5FC" stroke-width="2" stroke-linecap="round"/>
<path d="M1392.96 440.995L1336.34 408.308" stroke="#B0D5FC" stroke-width="2" stroke-linecap="round"/>
<path d="M1373.11 456.224L1356.19 393.077" stroke="#B0D5FC" stroke-width="2" stroke-linecap="round"/>
<path d="M1333.08 433.111L1396.23 416.191" stroke="#B0D5FC" stroke-width="2" stroke-linecap="round"/>
</g>
</svg>
