<svg width="25" height="25" viewBox="0 0 25 25" fill="none" xmlns="http://www.w3.org/2000/svg">
<mask id="mask0_168_37579" style="mask-type:alpha" maskUnits="userSpaceOnUse" x="0" y="0" width="25" height="25">
<rect x="0.857422" y="0.5" width="24" height="24" fill="#D9D9D9"/>
</mask>
<g mask="url(#mask0_168_37579)">
<path d="M9.85742 18.5H15.8574C16.1408 18.5 16.3783 18.4042 16.5699 18.2125C16.7616 18.0208 16.8574 17.7833 16.8574 17.5C16.8574 17.2167 16.7616 16.9792 16.5699 16.7875C16.3783 16.5958 16.1408 16.5 15.8574 16.5H9.85742C9.57409 16.5 9.33659 16.5958 9.14492 16.7875C8.95326 16.9792 8.85742 17.2167 8.85742 17.5C8.85742 17.7833 8.95326 18.0208 9.14492 18.2125C9.33659 18.4042 9.57409 18.5 9.85742 18.5ZM9.85742 14.5H15.8574C16.1408 14.5 16.3783 14.4042 16.5699 14.2125C16.7616 14.0208 16.8574 13.7833 16.8574 13.5C16.8574 13.2167 16.7616 12.9792 16.5699 12.7875C16.3783 12.5958 16.1408 12.5 15.8574 12.5H9.85742C9.57409 12.5 9.33659 12.5958 9.14492 12.7875C8.95326 12.9792 8.85742 13.2167 8.85742 13.5C8.85742 13.7833 8.95326 14.0208 9.14492 14.2125C9.33659 14.4042 9.57409 14.5 9.85742 14.5ZM6.85742 22.5C6.30742 22.5 5.83659 22.3042 5.44492 21.9125C5.05326 21.5208 4.85742 21.05 4.85742 20.5V4.5C4.85742 3.95 5.05326 3.47917 5.44492 3.0875C5.83659 2.69583 6.30742 2.5 6.85742 2.5H14.0324C14.2991 2.5 14.5533 2.55 14.7949 2.65C15.0366 2.75 15.2491 2.89167 15.4324 3.075L20.2824 7.925C20.4658 8.10833 20.6074 8.32083 20.7074 8.5625C20.8074 8.80417 20.8574 9.05833 20.8574 9.325V20.5C20.8574 21.05 20.6616 21.5208 20.2699 21.9125C19.8783 22.3042 19.4074 22.5 18.8574 22.5H6.85742ZM13.8574 8.5V4.5H6.85742V20.5H18.8574V9.5H14.8574C14.5741 9.5 14.3366 9.40417 14.1449 9.2125C13.9533 9.02083 13.8574 8.78333 13.8574 8.5Z" fill="#0E5399"/>
</g>
</svg>
