<svg width="78" height="44" viewBox="0 0 78 44" fill="none" xmlns="http://www.w3.org/2000/svg">
<g clip-path="url(#clip0_168_37738)">
<rect y="0.5" width="78" height="43" rx="21.5" fill="#663100"/>
<circle cx="37" cy="37" r="37" transform="matrix(-1 0 0 1 76 -14.5)" fill="#FFEFE0"/>
<circle cx="17" cy="17" r="17" transform="matrix(-1 0 0 1 56 5.5)" fill="#FFFAF5"/>
</g>
<g clip-path="url(#clip1_168_37738)">
<rect y="0.5" width="78" height="43" rx="21.5" fill="#FFE4CC"/>
<circle cx="35" cy="35" r="35" transform="matrix(-1 0 0 1 74 -12.5)" fill="#FFFAF5"/>
<circle cx="27" cy="27" r="27" transform="matrix(-1 0 0 1 66 -4.5)" fill="#FFEFE0"/>
<g filter="url(#filter0_d_168_37738)">
<circle cx="20" cy="20" r="20" transform="matrix(-1 0 0 1 59 2.5)" fill="#FFE4CC"/>
</g>
<circle cx="17" cy="17" r="17" transform="matrix(-1 0 0 1 56 5.5)" fill="#FFFAF5"/>
</g>
<defs>
<filter id="filter0_d_168_37738" x="15" y="-1.5" width="48" height="48" filterUnits="userSpaceOnUse" color-interpolation-filters="sRGB">
<feFlood flood-opacity="0" result="BackgroundImageFix"/>
<feColorMatrix in="SourceAlpha" type="matrix" values="0 0 0 0 0 0 0 0 0 0 0 0 0 0 0 0 0 0 127 0" result="hardAlpha"/>
<feOffset/>
<feGaussianBlur stdDeviation="2"/>
<feComposite in2="hardAlpha" operator="out"/>
<feColorMatrix type="matrix" values="0 0 0 0 1 0 0 0 0 1 0 0 0 0 1 0 0 0 0.5 0"/>
<feBlend mode="normal" in2="BackgroundImageFix" result="effect1_dropShadow_168_37738"/>
<feBlend mode="normal" in="SourceGraphic" in2="effect1_dropShadow_168_37738" result="shape"/>
</filter>
<clipPath id="clip0_168_37738">
<rect y="0.5" width="78" height="43" rx="21.5" fill="white"/>
</clipPath>
<clipPath id="clip1_168_37738">
<rect y="0.5" width="78" height="43" rx="21.5" fill="white"/>
</clipPath>
</defs>
</svg>
