<svg width="24" height="25" viewBox="0 0 24 25" fill="none" xmlns="http://www.w3.org/2000/svg">
<mask id="mask0_168_37587" style="mask-type:alpha" maskUnits="userSpaceOnUse" x="0" y="0" width="24" height="25">
<rect y="0.5" width="24" height="24" fill="#D9D9D9"/>
</mask>
<g mask="url(#mask0_168_37587)">
<path d="M5 21.5C4.45 21.5 3.97917 21.3042 3.5875 20.9125C3.19583 20.5208 3 20.05 3 19.5V9.5C3 7.83333 3.58333 6.41667 4.75 5.25C5.91667 4.08333 7.33333 3.5 9 3.5H15C16.6667 3.5 18.0833 4.08333 19.25 5.25C20.4167 6.41667 21 7.83333 21 9.5V19.5C21 20.05 20.8042 20.5208 20.4125 20.9125C20.0208 21.3042 19.55 21.5 19 21.5H5ZM5 19.5H19V9.5C19 8.4 18.6083 7.45833 17.825 6.675C17.0417 5.89167 16.1 5.5 15 5.5H9C7.9 5.5 6.95833 5.89167 6.175 6.675C5.39167 7.45833 5 8.4 5 9.5V19.5ZM9 12.5C8.45 12.5 7.97917 12.3042 7.5875 11.9125C7.19583 11.5208 7 11.05 7 10.5C7 9.95 7.19583 9.47917 7.5875 9.0875C7.97917 8.69583 8.45 8.5 9 8.5C9.55 8.5 10.0208 8.69583 10.4125 9.0875C10.8042 9.47917 11 9.95 11 10.5C11 11.05 10.8042 11.5208 10.4125 11.9125C10.0208 12.3042 9.55 12.5 9 12.5ZM15 12.5C14.45 12.5 13.9792 12.3042 13.5875 11.9125C13.1958 11.5208 13 11.05 13 10.5C13 9.95 13.1958 9.47917 13.5875 9.0875C13.9792 8.69583 14.45 8.5 15 8.5C15.55 8.5 16.0208 8.69583 16.4125 9.0875C16.8042 9.47917 17 9.95 17 10.5C17 11.05 16.8042 11.5208 16.4125 11.9125C16.0208 12.3042 15.55 12.5 15 12.5ZM7 19.5V17.5C7 16.95 7.19583 16.4792 7.5875 16.0875C7.97917 15.6958 8.45 15.5 9 15.5H15C15.55 15.5 16.0208 15.6958 16.4125 16.0875C16.8042 16.4792 17 16.95 17 17.5V19.5H15V17.5H13V19.5H11V17.5H9V19.5H7Z" fill="#0E5399"/>
</g>
</svg>
