<svg width="38" height="39" viewBox="0 0 38 39" fill="none" xmlns="http://www.w3.org/2000/svg">
<mask id="mask0_168_37680" style="mask-type:alpha" maskUnits="userSpaceOnUse" x="0" y="0" width="38" height="39">
<rect y="0.5" width="38" height="38" fill="#D9D9D9"/>
</mask>
<g mask="url(#mask0_168_37680)">
<path d="M34.8331 27.4163C34.3845 27.4163 34.0084 27.2646 33.705 26.9611C33.4015 26.6576 33.2497 26.2816 33.2497 25.833V16.4913L20.5435 23.4184C20.306 23.5503 20.0619 23.6493 19.8112 23.7153C19.5605 23.7812 19.29 23.8142 18.9997 23.8142C18.7095 23.8142 18.439 23.7812 18.1883 23.7153C17.9376 23.6493 17.6935 23.5503 17.456 23.4184L4.11641 16.1351C3.85252 16.0031 3.648 15.8118 3.50286 15.5611C3.35773 15.3104 3.28516 15.0399 3.28516 14.7496C3.28516 14.4594 3.35773 14.1889 3.50286 13.9382C3.648 13.6875 3.85252 13.4962 4.11641 13.3642L17.4956 6.08089C17.7331 5.94895 17.9772 5.84999 18.2279 5.78402C18.4786 5.71804 18.7359 5.68506 18.9997 5.68506C19.2636 5.68506 19.5209 5.71804 19.7716 5.78402C20.0223 5.84999 20.2664 5.94895 20.5039 6.08089L35.5852 14.3142C35.849 14.4462 36.0536 14.6375 36.1987 14.8882C36.3438 15.1389 36.4164 15.4094 36.4164 15.6996V25.833C36.4164 26.2816 36.2647 26.6576 35.9612 26.9611C35.6577 27.2646 35.2817 27.4163 34.8331 27.4163ZM18.9997 33.3142C18.7359 33.3142 18.4786 33.2812 18.2279 33.2153C17.9772 33.1493 17.7331 33.0503 17.4956 32.9184L9.57891 28.6434C9.05113 28.3531 8.6421 27.9639 8.35182 27.4757C8.06155 26.9875 7.91641 26.4399 7.91641 25.833V19.8163L16.9018 24.6851C17.2449 24.8698 17.5879 25.0347 17.931 25.1799C18.274 25.325 18.6303 25.3976 18.9997 25.3976C19.3692 25.3976 19.732 25.3184 20.0883 25.1601C20.4445 25.0017 20.7942 24.8302 21.1372 24.6455L30.0831 19.8163V25.833C30.0831 26.4399 29.9379 26.9875 29.6477 27.4757C29.3574 27.9639 28.9484 28.3531 28.4206 28.6434L20.5039 32.9184C20.2664 33.0503 20.0223 33.1493 19.7716 33.2153C19.5209 33.2812 19.2636 33.3142 18.9997 33.3142Z" fill="#054A91"/>
</g>
</svg>
