<svg width="25" height="24" viewBox="0 0 25 24" fill="none" xmlns="http://www.w3.org/2000/svg">
<mask id="mask0_41_42619" style="mask-type:alpha" maskUnits="userSpaceOnUse" x="0" y="0" width="25" height="24">
<rect x="0.285645" width="24" height="24" fill="#D9D9D9"/>
</mask>
<g mask="url(#mask0_41_42619)">
<path d="M2.28564 12.0002C2.28564 9.60021 3.02314 7.50021 4.49814 5.70021C5.97314 3.90021 7.83564 2.75021 10.0856 2.25021C10.419 2.16688 10.7023 2.20021 10.9356 2.35021C11.169 2.50021 11.2856 2.73354 11.2856 3.05021C11.2856 3.38354 11.1773 3.64604 10.9606 3.83771C10.744 4.02938 10.469 4.17521 10.1356 4.27521C8.41898 4.74188 7.01481 5.67938 5.92314 7.08771C4.83148 8.49604 4.28564 10.1335 4.28564 12.0002C4.28564 12.7335 4.37731 13.4377 4.56064 14.1127C4.74398 14.7877 5.00231 15.4169 5.33564 16.0002C5.50231 16.2835 5.58148 16.5669 5.57314 16.8502C5.56481 17.1335 5.44398 17.3919 5.21064 17.6252C4.99398 17.8419 4.76064 17.9335 4.51064 17.9002C4.26064 17.8669 4.05231 17.7169 3.88564 17.4502C3.36898 16.6502 2.97314 15.796 2.69814 14.8877C2.42314 13.9794 2.28564 13.0169 2.28564 12.0002ZM12.2856 22.0002C11.269 22.0002 10.2981 21.8585 9.37314 21.5752C8.44814 21.2919 7.58564 20.8919 6.78564 20.3752C6.53564 20.2085 6.39398 19.996 6.36064 19.7377C6.32731 19.4794 6.41065 19.2419 6.61064 19.0252C6.82731 18.7919 7.07731 18.6752 7.36064 18.6752C7.64398 18.6752 7.92731 18.7585 8.21064 18.9252C8.81064 19.2752 9.45231 19.5419 10.1356 19.7252C10.819 19.9085 11.5356 20.0002 12.2856 20.0002C13.0356 20.0002 13.7523 19.9085 14.4356 19.7252C15.119 19.5419 15.7606 19.2752 16.3606 18.9252C16.644 18.7585 16.9273 18.671 17.2106 18.6627C17.494 18.6544 17.744 18.7669 17.9606 19.0002C18.1606 19.2169 18.244 19.4585 18.2106 19.7252C18.1773 19.9919 18.0356 20.2085 17.7856 20.3752C16.9856 20.8919 16.1231 21.2919 15.1981 21.5752C14.2731 21.8585 13.3023 22.0002 12.2856 22.0002ZM22.2856 12.0002C22.2856 13.0169 22.1481 13.9794 21.8731 14.8877C21.5981 15.796 21.2023 16.6502 20.6856 17.4502C20.519 17.7169 20.3106 17.8669 20.0606 17.9002C19.8106 17.9335 19.5773 17.8419 19.3606 17.6252C19.1273 17.3919 19.0065 17.1335 18.9981 16.8502C18.9898 16.5669 19.069 16.2835 19.2356 16.0002C19.569 15.4169 19.8273 14.7877 20.0106 14.1127C20.194 13.4377 20.2856 12.7335 20.2856 12.0002C20.2856 10.1335 19.7398 8.49604 18.6481 7.08771C17.5565 5.67938 16.1523 4.74188 14.4356 4.27521C14.1023 4.17521 13.8273 4.02938 13.6106 3.83771C13.394 3.64604 13.2856 3.38354 13.2856 3.05021C13.2856 2.73354 13.4023 2.50021 13.6356 2.35021C13.869 2.20021 14.1523 2.16688 14.4856 2.25021C16.7356 2.75021 18.5981 3.90021 20.0731 5.70021C21.5481 7.50021 22.2856 9.60021 22.2856 12.0002ZM9.78564 15.5752V8.42521C9.78564 8.22521 9.87314 8.07521 10.0481 7.97521C10.2231 7.87521 10.394 7.88354 10.5606 8.00021L16.1356 11.5752C16.2856 11.6752 16.3606 11.8169 16.3606 12.0002C16.3606 12.1835 16.2856 12.3252 16.1356 12.4252L10.5606 16.0002C10.394 16.1169 10.2231 16.1252 10.0481 16.0252C9.87314 15.9252 9.78564 15.7752 9.78564 15.5752Z" fill="#0E5399"/>
</g>
</svg>
