<svg width="25" height="25" viewBox="0 0 25 25" fill="none" xmlns="http://www.w3.org/2000/svg">
<mask id="mask0_168_37583" style="mask-type:alpha" maskUnits="userSpaceOnUse" x="0" y="0" width="25" height="25">
<rect x="0.428711" y="0.5" width="24" height="24" fill="#D9D9D9"/>
</mask>
<g mask="url(#mask0_168_37583)">
<path d="M17.0537 7.875C16.2704 7.10833 15.6412 6.21667 15.1662 5.2C14.6912 4.18333 14.4537 3.25 14.4537 2.4C14.4537 2.15 14.5495 1.9375 14.7412 1.7625C14.9329 1.5875 15.1704 1.5 15.4537 1.5C15.7037 1.5 15.9287 1.59583 16.1287 1.7875C16.3287 1.97917 16.4454 2.21667 16.4787 2.5C16.5954 3.25 16.8204 3.96667 17.1537 4.65C17.487 5.33333 17.9204 5.94167 18.4537 6.475C18.987 7.00833 19.5954 7.44583 20.2787 7.7875C20.962 8.12917 21.6787 8.35833 22.4287 8.475C22.712 8.50833 22.9495 8.62083 23.1412 8.8125C23.3329 9.00417 23.4287 9.225 23.4287 9.475C23.4287 9.75833 23.3454 9.99583 23.1787 10.1875C23.012 10.3792 22.8037 10.475 22.5537 10.475C21.687 10.475 20.7454 10.2333 19.7287 9.75C18.712 9.26667 17.8204 8.64167 17.0537 7.875ZM19.8537 5.075C19.4204 4.64167 19.0787 4.17917 18.8287 3.6875C18.5787 3.19583 18.4537 2.74167 18.4537 2.325C18.4537 2.09167 18.5537 1.89583 18.7537 1.7375C18.9537 1.57917 19.1954 1.5 19.4787 1.5C19.712 1.5 19.9162 1.5875 20.0912 1.7625C20.2662 1.9375 20.4037 2.16667 20.5037 2.45C20.587 2.68333 20.687 2.9 20.8037 3.1C20.9204 3.3 21.0704 3.49167 21.2537 3.675C21.437 3.85833 21.6287 4.00417 21.8287 4.1125C22.0287 4.22083 22.2454 4.31667 22.4787 4.4C22.762 4.5 22.9912 4.64167 23.1662 4.825C23.3412 5.00833 23.4287 5.21667 23.4287 5.45C23.4287 5.73333 23.3495 5.975 23.1912 6.175C23.0329 6.375 22.837 6.475 22.6037 6.475C22.187 6.475 21.7329 6.35 21.2412 6.1C20.7495 5.85 20.287 5.50833 19.8537 5.075ZM10.4287 13.5C9.32871 13.5 8.38704 13.1083 7.60371 12.325C6.82038 11.5417 6.42871 10.6 6.42871 9.5C6.42871 8.4 6.82038 7.45833 7.60371 6.675C8.38704 5.89167 9.32871 5.5 10.4287 5.5C11.5287 5.5 12.4704 5.89167 13.2537 6.675C14.037 7.45833 14.4287 8.4 14.4287 9.5C14.4287 10.6 14.037 11.5417 13.2537 12.325C12.4704 13.1083 11.5287 13.5 10.4287 13.5ZM4.42871 21.5C3.87871 21.5 3.40788 21.3042 3.01621 20.9125C2.62454 20.5208 2.42871 20.05 2.42871 19.5V18.7C2.42871 18.15 2.57038 17.6333 2.85371 17.15C3.13704 16.6667 3.52871 16.3 4.02871 16.05C4.87871 15.6167 5.83704 15.25 6.90371 14.95C7.97038 14.65 9.14538 14.5 10.4287 14.5C11.712 14.5 12.887 14.65 13.9537 14.95C15.0204 15.25 15.9787 15.6167 16.8287 16.05C17.3287 16.3 17.7204 16.6667 18.0037 17.15C18.287 17.6333 18.4287 18.15 18.4287 18.7V19.5C18.4287 20.05 18.2329 20.5208 17.8412 20.9125C17.4495 21.3042 16.9787 21.5 16.4287 21.5H4.42871ZM4.42871 19.5H16.4287V18.7C16.4287 18.5167 16.3829 18.35 16.2912 18.2C16.1995 18.05 16.0787 17.9333 15.9287 17.85C15.3287 17.55 14.5579 17.25 13.6162 16.95C12.6745 16.65 11.612 16.5 10.4287 16.5C9.24538 16.5 8.18288 16.65 7.24121 16.95C6.29954 17.25 5.52871 17.55 4.92871 17.85C4.77871 17.9333 4.65788 18.05 4.56621 18.2C4.47454 18.35 4.42871 18.5167 4.42871 18.7V19.5ZM10.4287 11.5C10.9787 11.5 11.4495 11.3042 11.8412 10.9125C12.2329 10.5208 12.4287 10.05 12.4287 9.5C12.4287 8.95 12.2329 8.47917 11.8412 8.0875C11.4495 7.69583 10.9787 7.5 10.4287 7.5C9.87871 7.5 9.40788 7.69583 9.01621 8.0875C8.62454 8.47917 8.42871 8.95 8.42871 9.5C8.42871 10.05 8.62454 10.5208 9.01621 10.9125C9.40788 11.3042 9.87871 11.5 10.4287 11.5Z" fill="#0E5399"/>
</g>
</svg>
