<svg width="25" height="25" viewBox="0 0 25 25" fill="none" xmlns="http://www.w3.org/2000/svg">
<path d="M19.3555 19.5697C23.2655 15.6597 23.2655 9.32969 19.3555 5.42969" stroke="white" stroke-width="1.5" stroke-linecap="round" stroke-linejoin="round"/>
<path d="M5.2157 5.42969C1.3057 9.33969 1.3057 15.6697 5.2157 19.5697" stroke="white" stroke-width="1.5" stroke-linecap="round" stroke-linejoin="round"/>
<path d="M8.98584 21.9102C10.0558 22.2802 11.1658 22.4602 12.2858 22.4602C13.4058 22.4502 14.5158 22.2802 15.5858 21.9102" stroke="white" stroke-width="1.5" stroke-linecap="round" stroke-linejoin="round"/>
<path d="M8.98584 3.09009C10.0558 2.72009 11.1658 2.54004 12.2858 2.54004C13.4058 2.54004 14.5158 2.72009 15.5858 3.09009" stroke="white" stroke-width="1.5" stroke-linecap="round" stroke-linejoin="round"/>
<path d="M9.02539 12.5001V10.8302C9.02539 8.75016 10.4954 7.90014 12.2954 8.94014L13.7454 9.78017L15.1954 10.6201C16.9954 11.6601 16.9954 13.3602 15.1954 14.4002L13.7454 15.2401L12.2954 16.0802C10.4954 17.1202 9.02539 16.2701 9.02539 14.1901V12.5001Z" stroke="white" stroke-width="1.5" stroke-miterlimit="10" stroke-linecap="round" stroke-linejoin="round"/>
</svg>
