<svg width="48" height="48" viewBox="0 0 48 48" fill="none" xmlns="http://www.w3.org/2000/svg">
<path d="M20.1 5.05958L8.06004 12.9196C4.20004 15.4396 4.20004 21.0796 8.06004 23.5996L20.1 31.4596C22.26 32.8796 25.82 32.8796 27.98 31.4596L39.96 23.5996C43.8 21.0796 43.8 15.4596 39.96 12.9396L27.98 5.07958C25.82 3.63958 22.26 3.63958 20.1 5.05958Z" stroke="white" stroke-width="3" stroke-linecap="round" stroke-linejoin="round"/>
<path d="M11.2602 26.1602L11.2402 35.5402C11.2402 38.0802 13.2002 40.8002 15.6002 41.6002L21.9802 43.7202C23.0802 44.0802 24.9002 44.0802 26.0202 43.7202L32.4002 41.6002C34.8002 40.8002 36.7602 38.0802 36.7602 35.5402V26.2602" stroke="white" stroke-width="3" stroke-linecap="round" stroke-linejoin="round"/>
<path d="M42.7998 30V18" stroke="white" stroke-width="3" stroke-linecap="round" stroke-linejoin="round"/>
</svg>
