<svg width="205" height="230" viewBox="0 0 205 230" fill="none" xmlns="http://www.w3.org/2000/svg">
<mask id="mask0_169_90947" style="mask-type:alpha" maskUnits="userSpaceOnUse" x="0" y="0" width="205" height="230">
<rect width="205" height="230" fill="#D9D9D9"/>
</mask>
<g mask="url(#mask0_169_90947)">
<path d="M184.193 148.531C181.773 148.531 179.744 147.613 178.107 145.776C176.47 143.939 175.651 141.663 175.651 138.948V82.4062L107.104 124.333C105.823 125.132 104.506 125.731 103.154 126.13C101.801 126.53 100.342 126.729 98.7761 126.729C97.2101 126.729 95.7509 126.53 94.3984 126.13C93.046 125.731 91.7292 125.132 90.4479 124.333L18.4844 80.25C17.0608 79.4514 15.9575 78.2934 15.1745 76.776C14.3915 75.2587 14 73.6215 14 71.8646C14 70.1076 14.3915 68.4705 15.1745 66.9531C15.9575 65.4358 17.0608 64.2778 18.4844 63.4792L90.6615 19.3958C91.9427 18.5972 93.2596 17.9983 94.612 17.599C95.9644 17.1997 97.3524 17 98.7761 17C100.2 17 101.588 17.1997 102.94 17.599C104.293 17.9983 105.609 18.5972 106.891 19.3958L188.25 69.2292C189.674 70.0278 190.777 71.1858 191.56 72.7031C192.343 74.2205 192.734 75.8576 192.734 77.6146V138.948C192.734 141.663 191.916 143.939 190.279 145.776C188.642 147.613 186.613 148.531 184.193 148.531ZM98.7761 184.229C97.3524 184.229 95.9644 184.03 94.612 183.63C93.2596 183.231 91.9427 182.632 90.6615 181.833L47.9531 155.958C45.1059 154.201 42.8993 151.845 41.3333 148.891C39.7674 145.936 38.9844 142.622 38.9844 138.948V102.531L87.4583 132C89.309 133.118 91.1597 134.116 93.0104 134.995C94.8611 135.873 96.783 136.312 98.7761 136.312C100.769 136.312 102.727 135.833 104.648 134.875C106.57 133.917 108.457 132.878 110.307 131.76L158.568 102.531V138.948C158.568 142.622 157.785 145.936 156.219 148.891C154.653 151.845 152.446 154.201 149.599 155.958L106.891 181.833C105.609 182.632 104.293 183.231 102.94 183.63C101.588 184.03 100.2 184.229 98.7761 184.229Z" fill="#054A91"/>
</g>
</svg>
